<svg width="158" height="60" viewBox="0 0 158 60" fill="none" xmlns="http://www.w3.org/2000/svg">
<path d="M27.6683 14.368H9.04434V18.304H15.7963V36H20.4043V18.304H26.5803L27.6683 14.368ZM35.6881 36.32C37.4801 36.32 39.6241 36.032 41.2241 35.584L40.8401 32.064C39.5281 32.352 37.8001 32.608 36.0721 32.608C33.0001 32.608 31.1761 31.2 31.1441 29.216H42.1521C42.2801 28.544 42.3441 27.712 42.3441 26.944C42.3441 22.784 40.2641 19.008 34.9201 19.008C29.4481 19.008 26.4081 22.784 26.4081 27.712C26.4081 33.12 29.3841 36.32 35.6881 36.32ZM34.7281 22.336C36.9041 22.336 37.8321 23.904 37.8321 26.112H31.2081C31.2401 23.808 32.4881 22.336 34.7281 22.336ZM48.9721 32.608C47.3081 32.608 45.3561 32.16 43.7881 31.584L43.4361 35.392C45.2281 36 47.2441 36.32 49.5481 36.32C53.1001 36.32 56.3641 34.72 56.3641 30.656C56.3641 28.384 55.2761 26.944 51.6281 25.792C49.6761 25.184 48.1401 24.864 48.1401 23.84C48.1401 22.976 49.1641 22.624 50.8601 22.624C52.2681 22.624 53.8041 22.88 55.0841 23.328L55.4041 19.648C53.9321 19.264 52.3001 19.008 50.5401 19.008C47.0201 19.008 43.5641 20.416 43.5641 23.968C43.5641 26.496 45.0681 28.16 48.6201 29.184C51.2441 29.952 51.8201 30.304 51.8201 31.136C51.8201 31.968 51.0521 32.608 48.9721 32.608ZM80.7313 21.632C80.7313 16.608 77.5633 14.368 72.2833 14.368H64.2193V36H68.7633V29.248H72.6353C78.0433 29.248 80.7313 26.368 80.7313 21.632ZM72.2833 25.28H68.7633V18.304H72.1873C74.5873 18.304 76.0593 19.296 76.0593 21.728C76.0593 23.936 74.8753 25.28 72.2833 25.28ZM92.3153 19.008C90.5553 19.008 88.4433 19.744 86.9073 20.768L86.6833 19.296H82.7153V36H87.1953V23.936C88.0913 23.328 89.4353 22.816 90.7153 22.816C91.6113 22.816 92.2513 23.008 92.7633 23.456C93.3073 23.936 93.5633 24.64 93.5633 26.016V36H98.0433V25.504C98.0433 23.264 97.5633 21.728 96.6033 20.672C95.6113 19.584 94.1713 19.008 92.3153 19.008ZM109.319 36.32C111.111 36.32 113.255 36.032 114.855 35.584L114.471 32.064C113.159 32.352 111.431 32.608 109.703 32.608C106.631 32.608 104.807 31.2 104.775 29.216H115.783C115.911 28.544 115.975 27.712 115.975 26.944C115.975 22.784 113.895 19.008 108.551 19.008C103.079 19.008 100.039 22.784 100.039 27.712C100.039 33.12 103.015 36.32 109.319 36.32ZM108.359 22.336C110.535 22.336 111.463 23.904 111.463 26.112H104.839C104.871 23.808 106.119 22.336 108.359 22.336ZM125.483 36.32C130.379 36.32 133.099 34.08 133.099 29.536V19.296H128.619V29.472C128.619 31.68 127.595 32.672 125.547 32.672C123.499 32.672 122.443 31.68 122.443 29.472V19.296H117.963V29.536C117.963 34.304 120.587 36.32 125.483 36.32ZM140.417 32.608C138.753 32.608 136.801 32.16 135.233 31.584L134.881 35.392C136.673 36 138.689 36.32 140.993 36.32C144.545 36.32 147.809 34.72 147.809 30.656C147.809 28.384 146.721 26.944 143.073 25.792C141.121 25.184 139.585 24.864 139.585 23.84C139.585 22.976 140.609 22.624 142.305 22.624C143.713 22.624 145.249 22.88 146.529 23.328L146.849 19.648C145.377 19.264 143.745 19.008 141.985 19.008C138.465 19.008 135.009 20.416 135.009 23.968C135.009 26.496 136.513 28.16 140.065 29.184C142.689 29.952 143.265 30.304 143.265 31.136C143.265 31.968 142.497 32.608 140.417 32.608Z" fill="#111111"/>
<g clip-path="url(#clip0_1643_10074)">
<path d="M64.8753 51.3635C63.992 50.8379 63.0066 51.7259 62.1255 51.1651C61.0117 51.8354 59.9116 51.1352 58.8122 51.1626C57.785 51.1889 56.9735 50.9158 56.2192 49.9545C56.0294 50.5042 55.9265 50.801 55.8252 51.0961C55.7612 51.1642 55.7056 51.28 55.6422 51.2847C54.5952 51.3619 53.5483 51.4232 52.5013 51.4898C51.4981 50.5915 50.1617 51.3285 49.0795 50.7976C48.8603 50.69 48.5603 50.5482 48.3712 50.6188C47.8975 50.7961 47.437 51.2941 46.946 50.8371C46.462 50.3873 46.1024 49.8011 45.437 48.9533C47.0554 49.2017 48.3089 48.6736 49.5313 49.2937C49.6768 49.3672 49.9176 49.4274 50.0309 49.358C51.793 48.283 53.5857 49.1494 55.565 49.2231C55.6755 49.0813 55.8314 48.7744 56.0796 48.5917C56.3473 48.3949 56.702 48.3152 57.0185 48.1841C56.3624 47.2695 55.4428 46.8757 54.344 46.8309L54.4016 46.893C54.0319 46.6661 53.6622 46.4409 53.0402 46.0585C54.6812 45.939 56.0858 45.4545 57.3434 46.6791C57.5268 46.8569 58.2473 46.8526 58.2941 46.7456C58.7937 45.6085 60.0446 46.1831 60.7842 45.6047C61.0112 45.427 61.4762 45.4399 61.7943 45.5166C64.6578 46.2039 67.5486 45.7853 70.4237 45.7417C73.054 45.703 75.6802 45.3154 78.3118 45.7365C78.4842 45.7644 78.6638 45.766 78.8384 45.7517C82.3552 45.4494 85.8324 46.0611 89.3312 46.2026C91.8704 46.3058 94.4143 46.2734 96.9559 46.2991C97.6463 46.3069 98.3368 46.3111 99.0862 46.633C98.5865 46.7678 98.0851 46.9026 97.4 47.0868C97.7024 47.3466 97.8502 47.5804 98.0348 47.6138C98.8421 47.7617 99.6093 47.6486 100.259 47.0818C101.132 46.3197 102.19 46.2056 103.245 46.4227C105.855 46.9598 108.492 46.7327 111.111 46.7485C114.872 46.7725 118.634 46.5587 122.397 46.4929C123.264 46.4776 124.131 46.6771 125.002 46.7306C125.962 46.79 126.969 46.9873 127.875 46.775C128.863 46.5441 129.782 46.6578 130.731 46.7506C132.218 46.8975 133.691 47.06 135.172 46.6467C135.668 46.5083 136.236 46.478 136.744 46.5618C138.143 46.7906 139.514 46.6564 140.917 46.5858C143.809 46.4402 146.713 46.5483 149.612 46.5631C153.739 46.5832 157.866 46.6122 161.993 46.6341C164.013 46.6447 166.041 46.7751 168.049 46.6341C170.936 46.4303 173.82 46.5841 176.703 46.5106C177.138 46.5003 177.594 46.4726 178.004 46.5854C180.007 47.1454 182.058 46.922 184.026 46.6555C186.675 46.2982 189.272 46.5798 191.892 46.6713C192.241 46.6832 192.603 46.8537 192.931 46.7949C196.006 46.2457 199.048 46.695 202.099 47.0123C202.786 47.0835 203.491 46.9434 204.187 46.9636C206.191 47.0234 208.197 47.0655 210.197 47.2133C211.494 47.3092 212.778 47.7203 214.069 47.721C215.278 47.7209 216.482 47.2417 217.696 47.1977C219.803 47.1228 221.916 47.2539 224.026 47.2336C225.781 47.2172 227.536 47.1039 229.291 47.0365C230.682 46.9834 232.089 46.7826 233.462 46.9143C237.749 47.3305 242.03 46.8429 246.313 46.9754C246.836 46.9923 247.386 46.9777 247.88 46.8358C248.67 46.6084 249.408 46.6519 250.208 46.7962C251.15 46.9665 252.154 47.0792 253.094 46.9465C256.769 46.429 260.461 46.625 264.147 46.5638C266.518 46.5246 268.894 46.5718 271.264 46.6435C272.664 46.6857 274.062 46.8494 275.459 46.962C275.722 46.9837 275.997 47.0917 276.244 47.0428C278.686 46.5498 281.111 47.2861 283.561 47.119C285.732 46.9706 287.929 47.1289 290.113 47.222C294.154 47.3946 298.186 47.3858 302.224 47.0775C305.108 46.8579 308.01 46.7423 310.887 47.3487C311.652 47.5104 312.502 47.6076 313.246 47.4397C315.161 47.009 317.076 47.4626 318.992 47.2573C320.911 47.0521 322.853 47.0832 324.786 47.0261C328.733 46.909 332.68 46.7867 336.626 46.7013C337.944 46.6723 339.276 46.6417 340.578 46.8063C343.747 47.2056 346.889 46.6588 350.046 46.6617C353.815 46.6646 357.586 46.3805 361.356 46.3253C363.988 46.2866 366.607 46.3306 369.246 46.1035C372.479 45.827 375.747 45.9453 379 45.9561C383.922 45.9709 388.845 46.0385 393.766 46.0867C394.291 46.0913 394.866 45.9783 395.333 46.1497C396.476 46.5684 397.622 46.4427 398.72 46.1987C401.154 45.658 403.614 45.7464 406.068 45.6815C410.551 45.5621 415.033 45.4567 419.515 45.369C421.883 45.3227 424.254 45.3346 426.623 45.3095C427.414 45.3006 428.205 45.2634 428.997 45.2281C431.89 45.0983 434.782 44.9439 437.677 44.8441C438.729 44.8074 439.789 44.859 440.836 44.9562C441.239 44.9932 441.623 45.2625 441.937 45.3956C442.107 46.1316 441.619 46.2806 441.265 46.459C440.365 46.9126 439.393 46.8513 438.421 46.7759C437.831 46.7302 437.238 46.7585 436.609 46.753C436.254 48.1908 437.281 49.1017 437.65 50.1442C437.177 51.0631 436.013 49.6208 435.698 50.837C436.043 51.5887 436.86 50.856 437.398 51.597C437.245 52.5451 437.099 53.7205 435.812 54.3258C436.292 55.3587 436.723 56.282 437.188 57.2813C436.787 57.6389 436.469 57.9215 436.151 58.2041C436.249 58.3282 436.333 58.5456 436.448 58.5625C437.503 58.7267 437.301 59.4789 437.233 60.1741L437.242 60.1319C436.621 60.433 436.013 60.7606 435.378 61.0281C434.446 61.4216 433.864 61.1787 432.891 59.9653C432.567 60.1792 432.18 60.3519 431.901 60.6348C430.941 61.6094 429.737 61.8649 428.492 61.6338C426.123 61.1939 423.793 62.0173 421.431 61.7448C421.093 61.7066 420.702 62.1366 420.279 62.3812C420.616 63.0923 420.905 63.7026 421.213 64.3535C420.934 64.5712 420.756 64.8304 420.55 64.8532C418.548 65.0753 416.545 65.3009 414.536 65.4367C413.315 65.5194 412.079 65.4011 410.854 65.4521C409.05 65.5279 407.86 64.6632 407.034 63.1482C406.868 62.8437 406.677 62.5532 406.467 62.2026C405.508 62.0709 404.56 61.9393 403.574 61.8039C403.131 60.5687 404.627 60.9253 404.903 60.1403C404.432 60.0235 403.973 59.9102 403.481 59.7879C403.609 59.6446 403.686 59.4832 403.808 59.4367C404.05 59.3437 404.32 59.2562 404.572 59.2708C405.424 59.3205 406.274 59.4142 407.089 59.49C407.184 60.1285 406.242 60.647 407.271 61.2425C407.682 60.7547 408.113 60.2441 408.654 59.6006C408.718 59.587 408.971 59.4835 409.224 59.4822C411.155 59.4709 413.088 59.4208 415.014 59.5151C415.713 59.5494 416.369 59.8247 416.958 59.2221C417.059 59.119 417.331 59.0527 417.447 59.1154C418.532 59.7008 419.696 59.3023 420.81 59.4406C421.289 59.4994 421.731 59.8574 422.07 60.0224C425.672 59.4267 429.127 58.5338 432.896 58.6284C432.687 58.387 432.576 58.1376 432.423 58.1081C432.085 58.0418 431.722 58.058 431.373 58.0919C430.072 58.2197 428.953 57.8295 428.004 56.8717C427.574 57.2203 427.188 57.534 426.776 57.8686C426.432 57.538 426.135 57.2518 425.777 56.9069C425.394 57.1748 425.033 57.598 424.615 57.6665C424.249 57.725 423.757 57.4582 423.438 57.193C423.225 57.015 423.083 56.5452 423.163 56.2817C423.241 56.0252 423.631 55.6992 423.899 55.6874C425.638 55.6092 427.384 55.6245 429.125 55.5657C429.553 55.5518 429.984 55.3988 430.396 55.2562C430.516 55.215 430.641 54.987 430.639 54.8479C430.637 54.7052 430.508 54.4962 430.382 54.4422C430.148 54.3433 429.872 54.2881 429.618 54.2999C427.35 54.4052 425.082 54.5299 422.876 54.6462C422.153 54.1467 422.163 53.6007 422.598 53.0285C423.558 51.7651 425.011 51.4448 426.386 51.626C427.697 51.7977 428.967 51.6168 430.253 51.665C431.128 51.699 431.969 51.5778 432.757 52.166C433.166 52.4725 433.608 52.1311 433.788 51.6958C433.863 51.5115 433.76 51.2077 433.648 51.0094C433.582 50.8943 433.339 50.8305 433.173 50.8273C431.243 50.7911 429.313 50.7355 427.384 50.7574C425.984 50.7716 424.585 50.9109 423.186 50.9621C421.012 51.0418 418.86 50.5914 416.673 50.7238C415.827 50.7746 414.96 50.4006 414.096 50.261C413.774 50.2089 413.434 50.2763 413.102 50.2893L413.139 50.3654C413.078 49.854 413.017 49.3426 412.953 48.8083C413.862 48.0447 414.792 47.7957 415.86 48.3123C416.587 48.6639 417.246 48.7842 418.093 48.4322C418.866 48.1113 419.816 48.2306 420.68 48.113C421.098 48.0568 421.558 47.9763 421.637 47.4203C421.522 47.296 421.413 47.0784 421.314 47.0828C418.967 47.1856 416.621 47.3713 414.274 47.4195C412.093 47.4639 409.887 47.161 407.732 47.3959C405.987 47.5867 404.273 47.5682 402.538 47.5619C402.122 47.56 401.705 47.7378 401.253 47.8396C401.321 49.3322 402.606 49.6252 403.384 50.3542L403.31 50.2761C402.981 51.2684 402.214 51.5489 401.265 51.5547C399.484 51.5638 399.02 51.2392 398.421 49.5447C398.308 49.2248 398.196 48.9033 398.074 48.5587C396.99 48.6831 395.974 48.7976 394.705 48.9433C395.017 49.2877 395.169 49.5779 395.406 49.6945C395.943 49.9599 396.537 50.1078 397.072 50.3731C397.242 50.4574 397.297 50.7679 397.49 51.1342C396.293 51.573 395.143 51.6351 394.117 51.2563C393.471 51.0164 393.027 50.2357 392.543 49.7488C392.693 49.1794 392.798 48.7751 392.931 48.2637C392.294 48.2581 391.714 48.2531 391.075 48.2475C391.529 49.2485 391.943 50.1575 392.454 51.284C391.408 51.2749 390.565 51.3468 389.747 51.2375C388.917 51.1263 388.731 49.7525 387.515 50.0854C387.361 50.3853 387.167 50.7623 386.974 51.1376C384.486 51.4171 384.486 51.4171 382.951 50.0843C382.343 50.4542 381.764 50.9794 381.09 51.1655C380.557 51.3123 379.878 51.125 379.32 50.9263C378.881 50.771 378.527 50.3733 378.045 50.0168C377.9 50.537 377.811 50.8533 377.706 51.2276C377.222 51.3026 376.714 51.3827 376.104 51.4796C376.839 51.84 377.789 51.7268 377.962 52.7271C377.861 52.9939 377.365 53.1129 377.847 53.7654C377.873 53.2442 377.888 52.9484 377.903 52.6526C379.132 52.2581 380.354 51.728 381.792 52.5015C381.635 53.0956 381.404 53.7207 381.324 54.3629C381.271 54.794 381.678 54.8715 382.05 54.8378L381.99 54.7844C382.617 55.2479 383.242 55.7131 383.807 56.132C384.594 55.9909 385.352 55.6734 386.049 55.7763C386.855 55.8943 387.594 55.7704 388.367 55.7208C389.139 55.6712 389.924 55.8049 390.417 55.8374C391.295 56.5285 391.955 57.0468 392.614 57.5652L392.546 57.4959C392.338 58.7835 392.268 60.1075 391.58 61.2729C391.195 61.9231 390.704 62.2782 389.863 62.1458C389.121 62.0301 388.349 62.1096 387.489 62.1021C387.69 60.3353 388.837 59.4716 390.942 58.8066C387.272 58.7745 384.217 58.7479 381.161 58.7212C381.148 58.7986 381.135 58.8742 381.122 58.9516C381.579 59.0983 382.038 59.245 382.535 59.4043C382.532 59.7619 382.529 60.1071 382.525 60.4541L382.607 60.3755C382.333 60.5616 382.014 60.7068 381.79 60.9427C380.964 61.8074 380.049 62.305 378.793 62.0069C378.433 61.921 378.011 62.0952 377.416 62.1781C377.664 61.3858 377.833 60.843 378 60.2983C379.123 58.5431 379.133 58.4657 378.156 57.1167C378.099 57.0369 377.889 57.0668 377.732 57.0425C377.728 57.4776 377.725 57.8915 377.72 58.4393C376.821 58.5495 375.893 58.9183 375.13 58.702C373.726 58.3058 372.394 58.583 371.03 58.6627C369.438 58.7563 369.438 58.7581 368.079 57.418C367.936 58.5071 367.798 59.5593 367.614 60.9528C368.054 60.555 368.26 60.3367 368.498 60.1608C368.836 59.9101 369.196 59.4975 369.552 59.4936C370.665 59.4786 371.781 59.6117 372.893 59.7218C372.995 59.7315 373.07 60.0034 373.159 60.1539C373.01 60.2284 372.825 60.2673 372.718 60.3808C372.611 60.4944 372.571 60.6773 372.529 60.8372C372.518 60.8758 372.66 60.9969 372.667 60.9916C372.842 60.8611 373.055 60.7467 373.162 60.5697C373.226 60.4628 373.121 60.2558 373.092 60.0935C374.957 59.0158 375.429 58.9195 376.962 59.0967C377.759 59.1883 377.879 59.7829 378.068 60.3588C377.267 60.2796 377.106 60.9458 376.813 61.4453C376.375 62.1919 375.75 62.5334 374.876 62.4413C372.899 62.2355 370.942 62.229 368.976 62.6822C368.266 62.8451 367.458 62.5844 366.696 62.5178L366.737 62.5041C364.874 62.5706 363.013 62.6548 361.151 62.6967C360.209 62.7184 359.267 62.6609 358.182 62.6355C358.018 61.4257 358.609 60.4973 358.704 59.5064L358.707 59.5557C358.906 59.5346 359.107 59.5134 359.758 59.4434C359.135 59.1878 358.932 59.0345 358.729 59.0345C358.116 59.0327 357.495 59.1735 356.893 59.1066C355.632 58.9652 354.187 59.1745 353.337 57.6364C353.285 58.175 353.233 58.7153 353.165 59.4281C352.393 59.4214 351.71 59.4207 351.027 59.4077C349.713 59.3856 348.833 58.8671 348.728 57.4253C348.709 57.1768 348.572 56.936 348.453 56.5809C350.572 55.7662 352.792 56.5765 355.012 56.0287C352.625 55.4635 350.352 55.0174 348.056 55.6509C347.498 54.7864 348.597 54.611 348.558 54.0047C348.271 53.6129 347.959 53.8339 347.748 54.0628C347.339 54.5014 346.989 54.9933 346.761 55.2802C344.479 55.4259 342.393 55.6508 340.303 55.6695C337.603 55.6953 334.92 56.4857 332.198 55.8049C331.642 55.6662 330.988 55.893 330.385 55.9811C329.496 56.1107 328.638 56.1349 328.068 55.48C326.958 55.8666 325.98 56.2086 325.002 56.5524C325.006 56.5542 325.09 56.606 325.09 56.606C323.794 55.9465 322.445 55.8642 321.039 56.1831C320.218 56.368 319.376 56.6213 318.416 56.1796C318.695 54.8486 319.1 53.6772 320.563 53.0083C320.12 52.4742 319.806 52.0945 319.489 51.7183C319.25 51.223 319.034 50.705 318.352 50.4207C318.38 51.3757 318.558 51.9515 319.555 51.6449C319.081 51.9948 318.643 52.5599 318.128 52.6435C317.387 52.7621 316.553 52.6439 315.824 52.4156C315.186 52.2162 314.639 51.7235 313.97 51.309C313.832 51.794 313.721 52.1841 313.598 52.6163C312.747 52.6089 311.886 52.5573 311.029 52.608C310.372 52.6463 309.854 52.5097 309.388 52.0159C308.878 51.476 308.523 50.9303 308.823 50.0363C309.283 50.0122 309.791 50.0342 310.272 49.9345C310.421 49.9041 310.501 49.5419 310.619 49.3351C312.005 49.777 313.357 50.3049 314.836 49.6079C315.179 49.4453 315.691 49.677 316.123 49.6579C316.465 49.6433 316.802 49.5211 317.141 49.4483C314.945 49.1931 312.79 49.0334 310.639 49.3388C309.435 49.249 308.232 49.1592 306.863 49.0592C307.308 50.349 308.483 51.0762 308.486 52.3991C308.027 52.9288 307.383 52.6537 306.82 52.6981C306.219 52.7457 305.61 52.6999 305.02 52.6947C304.543 52.0511 304.137 51.5015 303.638 50.8278C303.032 51.4496 303.851 51.9729 303.518 52.6023C302.432 52.9927 301.255 52.5738 300.076 52.442C300.053 52.292 300.034 52.1545 300.049 52.2708C300.04 52.1739 300.056 52.3308 300.072 52.486C299.487 52.509 298.902 52.5339 298.322 52.557C299.144 51.8472 298.504 50.9028 298.726 50.0979C298.997 49.9735 299.267 49.8508 299.538 49.7263C300.484 49.7486 301.433 49.7393 302.377 49.8004C303.373 49.8637 303.371 49.8936 304.693 49.0103C303.213 48.9974 301.988 48.9779 300.763 48.9795C300.205 48.98 299.717 49.129 299.564 49.76C299.113 49.5112 298.668 49.2713 298.226 49.0261C297.839 48.8113 297.448 48.6441 297.113 49.0833C297.027 49.1953 296.977 49.4732 297.042 49.5354C297.333 49.8075 297.646 50.0885 298.006 50.2449C298.19 50.3258 298.484 50.1522 298.728 50.0944C298.323 50.873 298.335 51.7186 298.326 52.5606C298.065 52.5988 297.802 52.6229 297.544 52.6788C295.633 53.0849 294.367 52.2829 293.459 50.5153C293.907 50.2039 294.304 49.929 294.985 49.4558C293.704 49.4869 292.885 48.6748 291.658 49.3986C290.67 49.9818 289.461 49.4358 288.31 48.6789C287.58 49.1516 286.811 49.7421 285.613 49.1186C284.68 48.6313 283.409 49.1628 282.307 48.6723C281.988 48.5303 281.39 49.0131 280.943 49.1994C280.981 50.003 281.636 49.6987 281.919 49.9601C282.232 50.2482 282.571 50.5083 282.979 50.8465C283.163 50.5469 283.288 50.1041 283.479 50.0741C284.997 49.8337 286.591 49.2998 287.819 50.8219C287.917 50.9425 288.13 50.9725 288.29 51.0444L288.22 50.9592C288.228 51.4419 288.169 51.9576 288.807 52.1234L288.713 52.0257C288.426 52.1818 288.143 52.4646 287.851 52.4744C285.592 52.5516 283.331 52.6094 281.072 52.5967C280.226 52.5911 279.382 52.3847 278.543 52.2593C278.516 51.5633 278.483 50.876 278.447 50.1729C278.678 49.9811 278.93 49.7702 279.448 49.3378C278.362 49.353 277.675 48.579 276.831 48.9891C277.421 50.0776 277.996 51.143 278.574 52.2085C278.066 52.2957 277.559 52.4375 277.048 52.4629C274.832 52.574 274.833 52.5616 273.158 51.0762C272.295 51.4174 273.652 52.1497 272.843 52.6288C272.105 53.0663 273.446 53.809 272.764 54.483C272.364 54.8776 272.202 55.5121 271.935 56.0329C271.441 56.5025 270.483 55.86 270.076 56.901C270.438 57.0028 270.732 57.1392 271.033 57.1559C271.666 57.1932 272.139 57.2766 272.502 57.9703C272.806 58.5471 273.498 58.9213 274.019 59.3839L273.949 59.311C273.909 59.744 273.885 60.2423 273.328 60.2833C271.458 60.4219 269.664 60.3076 268.395 57.9626C268.387 58.8116 268.384 59.1638 268.38 59.6729C266.722 60.0671 265.133 59.9299 263.551 59.5462C263.664 59.3287 263.775 59.1254 263.858 58.9094C263.879 58.8533 263.815 58.7629 263.789 58.6869C263.678 58.7405 263.469 58.7986 263.471 58.8497C263.477 59.0752 263.544 59.2995 263.59 59.5254C263.586 59.7702 263.58 60.015 263.576 60.2598C263.572 60.4993 263.572 60.7389 263.568 61.1828C264.421 60.9841 265.14 60.7086 265.871 60.6744C266.65 60.6372 267.44 60.8255 268.298 60.9228C268.728 61.7968 267.318 61.9976 267.559 62.9122C267.746 63.6272 267.482 64.4581 267.445 65.2381C267.43 65.5674 267.48 65.9008 267.508 66.3414C269.233 64.6372 269.236 64.6971 270.843 64.6512C271.846 64.623 272.537 64.9655 273.058 65.9547C274.018 65.3976 274.868 64.6793 276.099 64.7376C277.738 64.8136 278.037 65.1033 277.762 67.1284C277.004 67.1218 276.233 67.1186 275.46 67.103C275.38 67.1023 275.3 67.0329 275.225 66.9882C274.52 66.5681 273.877 66.751 273.269 67.2002C272.65 67.6563 271.956 67.6925 271.253 67.5261C270.573 67.3634 269.924 67.053 269.272 67.6374C268.851 68.0159 268.495 67.9107 267.914 67.6608C266.362 66.9955 264.66 66.424 262.97 66.9183C261.777 67.2672 260.91 67.0765 260.135 66.2171C259.675 65.7058 259.133 65.2396 259.117 64.4344C259.104 63.846 258.671 63.4723 258.135 63.3284C257.85 63.252 257.512 63.3758 256.996 63.4312C257.596 64.4828 258.098 65.3591 258.696 66.4054C258.222 66.6355 257.874 66.932 257.511 66.9534C256.826 66.995 256.133 66.878 255.288 66.8143C254.977 65.4763 254.521 64.0843 253.321 63.1032C252.736 63.1404 252.15 63.2022 251.564 63.2077C251.046 63.212 250.526 63.1546 249.938 63.1213C249.796 62.7237 249.634 62.2713 249.464 61.7925C246.137 63.9864 245.442 64.5141 243.345 62.5864C242.191 63.8005 240.65 63.6796 239.259 63.4279C238.454 63.2835 237.742 63.2438 236.963 63.3621C236.448 63.4404 235.911 63.3617 235.391 63.4118C234.367 63.5121 233.368 63.0859 232.288 63.5697C231.471 63.936 230.459 63.3811 229.469 63.5962C228.668 63.7706 227.757 63.3769 226.892 63.3535C226.544 63.3434 226.187 63.6468 225.727 63.8559C226.731 64.5094 228.766 65.0344 229.436 64.9205C230.126 64.8032 230.819 64.6965 231.516 64.6445C232.935 64.5371 232.997 64.6099 233.412 66.5001C232.519 66.9749 231.435 66.9866 230.678 66.5784C229.582 65.991 228.703 66.3867 227.715 66.5983C226.068 66.9503 224.462 66.1665 223.835 64.6462C223.651 64.1989 223.663 63.5948 223.787 63.115C223.957 62.4559 224.316 61.8478 224.656 61.0792C226.086 61.1393 227.541 60.6905 228.997 61.3549C229.355 61.5183 229.849 61.4152 230.278 61.389C230.625 61.3674 230.968 61.233 231.315 61.2237C232.506 61.1918 233.549 62.0006 234.839 61.686C236.013 61.4003 237.255 61.5485 238.486 61.6015C240.18 61.6727 242.004 62.0233 243.591 60.9591C244.546 61.3761 245.182 60.9501 245.78 60.0288C245.371 59.2854 244.923 58.4765 244.499 57.7047C244.92 57.0091 245.45 57.2955 245.944 57.402C246.536 57.5287 246.947 57.3174 247.36 56.6094C246.653 56.4676 246.091 56.2724 245.522 56.2569C243.959 56.2133 242.394 56.2525 240.83 56.2477C239.34 56.2417 237.85 56.2217 236.359 56.2051C236.183 56.2036 235.997 56.1474 235.835 56.19C234.103 56.6364 232.385 56.255 230.656 56.2188C229.645 56.1976 229.036 55.7361 228.266 55.3013C227.836 55.597 227.414 55.8875 227.01 56.164C225.091 55.3846 225.091 55.3846 225.54 53.7767C226.588 53.7859 227.679 53.7954 228.832 53.8054C228.94 54.1428 229.069 54.5403 229.203 54.9537C229.36 54.9198 229.552 54.9373 229.628 54.8517C230.215 54.1962 230.73 53.5525 231.822 53.7822C232.458 53.9163 233.17 53.6953 233.896 53.6312C233.523 54.6919 233.523 54.6919 232.508 55.4845C232.8 55.5593 233.05 55.7077 233.252 55.6566C233.578 55.5749 233.986 55.4446 234.161 55.196C235.194 53.7112 236.763 53.5717 238.44 53.3467C238.552 53.7969 238.649 54.1906 238.748 54.5842C239.271 54.6452 239.271 54.6452 239.943 53.3211C241.026 53.3306 242.159 53.3087 243.286 53.3732C243.555 53.3879 243.808 53.693 244.071 53.8609C244.251 53.9752 244.587 54.1931 244.6 54.1773C245.09 53.5122 245.756 53.5304 246.477 53.6054C247.069 53.6669 247.671 53.6281 248.422 53.6347C248.531 54.2204 248.63 54.7586 248.75 55.3973C249.701 54.789 250.365 54.0303 250.804 53.0037C250.589 52.8028 250.417 52.5089 250.22 52.4895C249.894 52.4585 249.554 52.6282 249.216 52.6692C247.583 52.8681 246.054 51.8666 244.335 52.417C242.851 52.8938 241.271 52.9346 239.686 52.4733C238.971 52.2645 238.122 52.4896 237.336 52.555C236.622 52.6157 235.936 52.6326 235.317 52.1745C235.038 51.9695 234.772 52.0112 234.394 52.1171C232.656 52.6093 230.953 52.6684 229.688 51.0333C229.54 50.8417 229.5 50.5648 229.373 50.2255C230.173 49.7058 231.052 49.5232 231.854 49.8438C232.931 50.2724 233.911 50.399 235.031 50.0177C235.58 49.8305 236.257 49.9474 236.864 50.0214C237.804 50.1353 238.732 50.5432 239.602 49.737C239.771 49.5799 240.244 49.7056 240.564 49.7648C241.663 49.9664 242.755 50.1943 244.07 50.4559C244.017 49.6839 243.974 49.0459 243.916 48.2104C243.168 48.5386 242.661 48.8318 242.114 48.9803C241.703 49.093 241.238 48.9885 240.803 49.0393C239.992 49.1327 239.247 49.0681 238.538 48.5845C238.305 48.4257 237.788 48.3578 237.603 48.5041C236.727 49.2028 235.732 49.0109 234.817 48.8568C233.929 48.7081 233.098 48.8329 232.235 48.8642C230.862 48.9121 229.468 48.5652 228.109 48.6802C226.789 48.792 225.505 48.964 224.212 48.5722C224.045 48.5214 223.831 48.428 223.707 48.4903C223.486 48.5993 223.315 48.8127 223.073 49.0273C223.651 50.0082 224.216 50.9661 224.755 51.8851C224.625 52.541 224.128 52.5437 223.727 52.4891C222.687 52.3461 221.658 52.124 220.533 51.9151C220.368 51.6706 220.152 51.401 219.992 51.1001C219.836 50.8064 219.739 50.4814 219.608 50.1526C220.109 49.8223 220.525 49.5494 220.97 49.2556C219.779 48.0755 218.563 48.5229 217.349 48.9668C217.186 50.519 219.367 50.7107 219.387 52.2469C218.182 52.8441 217.064 52.5155 215.989 52.2683C215.633 52.1859 215.294 51.7532 215.084 51.399C214.87 51.0378 214.823 50.5776 214.676 50.0638C213.735 49.7085 212.526 50.1366 211.793 49.1949C210.229 49.0191 208.664 48.8329 207.098 48.673C205.97 48.5575 204.84 48.4666 203.708 48.3862C203.372 48.3622 202.988 48.3201 202.696 48.4443C201.473 48.9674 200.275 48.7315 199.1 48.3601C197.87 47.9724 196.735 48.0946 195.04 48.8725C196.139 48.9895 196.679 49.0647 197.223 49.1029C197.83 49.1452 198.441 49.1611 199.049 49.177C200.012 49.2048 200.983 49.1586 201.937 49.2621C203.339 49.4153 203.655 49.9605 203.459 51.6287C201.421 52.3138 201.178 52.2447 199.167 50.3847C198.98 50.7635 198.797 51.1301 198.573 51.5861C197.484 51.8285 196.433 51.9726 195.493 50.9621C195.123 50.566 194.54 50.3002 193.841 50.0687C194.66 51.9324 194.66 51.9324 193.811 54.289C195.45 55.0079 195.45 55.0079 196.396 54.2058C196.1 53.9655 195.947 53.7598 195.66 53.1795C196.516 52.7836 197.37 53.0253 198.185 53.0536C198.729 53.9761 197.908 54.5484 197.729 55.2585C198.035 55.728 198.974 55.5142 198.907 56.368C199.485 56.5245 200.063 56.6828 200.639 56.8393C200.428 57.8345 200.569 58.3008 201.213 58.5125C201.826 58.7134 202.207 58.4172 202.406 57.8201C202.482 57.5917 202.641 57.3888 202.825 57.061C203.343 57.291 203.813 57.4994 204.282 57.7078L204.219 57.6333C204.217 58.0138 204.216 58.396 204.212 58.7765L204.257 58.7029C203.607 58.8804 202.966 59.1232 202.303 59.2178C201.707 59.3024 201.087 59.2265 200.474 59.2212C200.13 58.7443 199.832 58.3313 199.529 57.913C198.807 58.0511 199.457 58.6539 198.625 59.1822C198.233 59.2827 197.266 59.5332 196.296 59.7837C196.306 59.8841 196.316 59.9846 196.325 60.0851C197.239 60.1547 198.151 60.2261 199.186 60.3039C198.962 60.9219 198.791 61.3961 198.563 62.0212C199.282 62.3762 199.818 61.132 200.661 61.8105C201.151 62.2058 202.139 61.9802 202.963 62.0402C202.52 63.132 202.52 63.132 201.105 63.6956C202.047 64.0879 203.054 64.5071 204.048 64.9209C204.079 64.7468 204.124 64.497 204.198 64.0925C204.828 64.0981 205.489 64.0721 206.146 64.1166C207.25 64.1914 208.349 64.3296 209.453 64.4062C210.495 64.4787 211.54 64.5001 212.584 64.5568C213.293 64.5947 213.729 64.9191 213.689 65.6956C213.201 65.6913 212.715 65.6871 212.227 65.6828C212.196 65.79 212.167 65.8972 212.136 66.0044C212.531 66.2157 212.923 66.4269 213.5 66.735C213.554 66.2281 213.586 65.9254 213.619 65.6227C213.818 65.6403 214.017 65.6597 214.216 65.6773L214.144 65.5903C214.051 66.0087 213.956 66.4271 213.871 66.8069C211.868 67.2509 211.859 67.2491 210.122 66.2862C208.617 66.8227 207.08 67.4769 205.4 66.8563C203.623 67.5454 201.769 66.8334 199.952 67.1698C198.578 67.4238 197.199 66.9802 195.729 66.6785C195.366 65.8968 195.011 65.1292 194.579 64.1988C195.574 64.0138 195.721 65.1054 196.411 65.0639C197.127 64.9045 196.424 64.2942 196.721 64.0238C197.039 63.7341 197.4 63.4907 197.826 63.1632C197.204 62.6012 196.467 63.0245 195.832 62.8834C195.272 62.7587 194.674 62.7905 193.81 62.7354C194.397 62.2015 194.774 61.8595 195.154 61.5035C195.635 61.4777 195.193 61.1057 195.363 60.9716C195.505 61.0239 195.642 61.0991 195.786 61.125C195.858 61.138 195.947 61.0595 196.028 61.0232C195.952 61.0331 195.875 61.0571 195.801 61.0476C195.657 61.0287 195.516 60.9905 195.374 60.9593C195.285 61.1717 195.197 61.3858 195.111 61.5982C195.188 60.6653 195.263 59.7341 195.355 58.6058C193.806 59.274 192.62 58.5766 191.4 58.0693C191.281 58.3871 191.198 58.6136 191.113 58.8418C189.773 59.075 190.32 57.32 189.393 57.1146C188.587 57.6713 189.768 58.21 189.325 58.7223C189.199 58.8198 189.083 58.9862 188.945 59.0043C187.949 59.1401 187.043 59.0089 186.481 58.0298C186.72 58.0672 186.983 58.1822 187.19 58.1171C187.37 58.0623 187.488 57.8044 187.634 57.6365C187.438 57.5397 187.23 57.3459 187.048 57.369C186.74 57.4068 186.449 57.5822 186.151 57.7011C186.31 57.8135 186.469 57.9276 186.629 58.04C186.397 58.2916 186.166 58.5432 185.915 58.8158C185.532 58.3633 185.217 57.9589 184.862 57.593C184.761 57.4899 184.546 57.4968 184.382 57.4531C183.691 57.7378 184.231 58.4101 183.932 58.8549C183.438 58.921 182.919 58.9852 182.401 59.06C180.912 59.276 180.914 59.2777 180.321 57.5357C180.531 57.5375 180.741 57.5376 180.95 57.5394C180.902 57.4245 180.854 57.3078 180.805 57.1929C180.672 57.345 180.538 57.4971 180.405 57.6492C179.792 57.6632 179.58 58.0788 179.273 58.5518C178.598 59.5957 176.778 59.9251 175.798 59.1873C175.427 58.9093 175.309 58.2952 175.078 57.837C175.553 57.9732 176.022 58.1271 176.502 58.2264C176.597 58.2466 176.803 58.0705 176.835 57.951C176.868 57.8297 176.792 57.6194 176.691 57.5305C176.123 57.0252 175.885 57.0883 175.139 57.9045C174.855 57.8016 174.569 57.6969 174.11 57.5308C174.258 58.2174 174.358 58.6903 174.454 59.1403C173.981 59.684 173.248 59.5156 172.363 58.6976L172.324 58.7219C172.475 58.6351 172.689 58.5841 172.762 58.4527C172.921 58.1722 173.162 57.8044 173.085 57.5606C173.006 57.3098 172.614 57.0774 172.317 56.9991C171.998 56.917 171.624 56.9913 171.287 57.057C170.541 57.2038 169.801 57.3893 169.049 57.5624C169.143 58.1164 169.24 58.6844 169.371 59.4447C168.204 59.3694 167.165 59.3603 166.146 59.207C165.687 59.1378 165.245 58.9543 165.349 58.1467C165.403 57.7173 164.628 57.1821 164.218 56.6853C165.848 56.1993 165.848 56.1993 167.912 56.7352C169.245 56.553 170.573 56.3726 172.268 56.1425C170.414 55.4464 169.131 55.9179 167.904 56.7457C168.003 56.507 168.102 56.27 168.252 55.9067C166.837 55.1545 165.398 55.4837 163.986 55.8008C163.467 55.9178 163.188 56.8102 163.428 57.3601C163.694 57.9684 164.392 58.4184 164.066 59.335C161.424 59.312 158.742 59.2886 155.917 59.2639C155.288 58.5785 154.587 57.8149 153.892 57.0567C153.896 57.0603 153.978 57.1491 153.978 57.1491C154.216 56.9292 154.431 56.5629 154.697 56.5194C155.376 56.4091 156.08 56.4716 156.769 56.4142C157.624 56.3424 158.435 57.2884 159.237 56.6947C160.127 56.0348 160.91 56.7427 161.728 56.6319C161.945 56.6021 162.249 56.4286 162.316 56.2495C162.486 55.7859 162.04 55.6023 161.746 55.5945C160.018 55.5548 158.288 55.5731 156.56 55.5809C155.95 55.5827 155.339 55.6443 154.729 55.6196C153.941 55.5863 153.883 55.4766 153.725 54.2016C153.722 54.2122 153.695 54.3018 153.695 54.3018C153.933 54.2439 154.264 54.2644 154.39 54.1123C154.777 53.6506 155.084 53.1231 155.468 52.5522C156.828 52.9023 158.27 52.2244 159.559 53.0899C159.681 53.172 159.926 53.1988 160.05 53.133C161.894 52.1415 164.007 53.1974 165.882 52.2996C165.85 51.6035 165.559 51.453 164.973 51.957C165.058 51.8555 165.144 51.7541 165.227 51.6527C165.132 51.6378 165.037 51.6229 164.942 51.6079C164.999 51.7388 165.056 51.8679 165.113 51.9987C164.601 51.9291 164.091 51.8277 163.576 51.8021C163.144 51.7807 162.573 52.04 162.298 51.8456C160.906 50.8593 159.446 51.7167 158.035 51.6216C157.113 51.559 156.188 51.9825 155.249 51.4159C154.979 51.2515 154.438 51.4986 154.032 51.6008C152.363 52.0248 150.745 52.1922 149.356 50.8642L149.401 50.9315C149.53 49.4829 149.599 49.3003 150.535 49.3684C151.47 49.4364 152.465 49.0153 153.353 49.6766C153.528 49.8067 153.934 49.849 154.101 49.7377C155.339 48.9065 156.01 49.5994 156.653 50.5703C156.763 50.7368 157.118 50.7399 157.355 50.816C157.894 49.6757 157.894 49.6722 158.9 49.7902C159.061 49.8092 159.331 49.9419 159.359 49.8999C160.254 48.5302 161.573 49.3555 162.705 49.2262C163.008 49.1919 163.305 49.0923 163.979 48.9344C163.422 48.6512 163.229 48.4804 163.022 48.461C160.67 48.2361 158.333 48.0167 155.949 48.2301C153.601 48.4404 151.224 48.3228 148.86 48.3638C148.078 48.3781 147.297 48.4382 146.514 48.4843C146.081 48.5104 145.598 48.6894 145.223 48.5575C143.012 47.7826 140.891 48.7787 138.727 48.8303C138.398 48.8379 138.073 49.0676 137.746 49.1951L137.822 49.2574C137.108 48.6506 136.253 48.5656 135.363 48.556C132.933 48.5313 130.495 48.3462 128.075 48.4889C125.47 48.6423 122.878 48.1283 120.282 48.4861C119.94 48.5324 119.579 48.5169 119.236 48.4699C117.339 48.2103 115.439 48.1743 113.532 48.2933C113.095 48.3212 112.67 48.3422 112.364 47.922C112.136 47.6082 111.793 47.459 111.481 47.7505C110.266 48.8831 108.789 48.0106 107.599 48.4564C107.252 48.0624 107.034 47.8138 106.658 47.3878C106.453 47.8704 106.303 48.2267 106.15 48.5812C106.149 48.5812 106.157 48.5795 106.157 48.5795C105.131 48.5036 104.103 48.4277 103.073 48.35C103.074 47.4534 103.715 47.8395 104.008 47.6359C104.037 47.5745 104.065 47.5149 104.094 47.4535C103.591 47.3276 103.089 47.2016 102.445 47.041C101.896 47.4537 101.282 47.9116 100.607 48.4166C99.1349 47.914 97.4451 48.581 96.082 47.329C94.5587 48.2968 93.0011 48.5457 91.3196 47.8564C90.8878 47.6782 90.3024 47.7453 89.8171 47.845C87.516 48.3182 87.5194 48.3358 85.6438 47.2819C85.1734 47.4945 84.7012 47.707 84.2183 47.9283C83.0261 47.6959 81.8344 47.1906 80.366 48.1254C81.9152 48.4296 83.1062 48.4012 84.2698 47.8847C84.3218 48.3889 84.7025 48.5667 85.0755 48.8165C85.2944 48.9629 85.5023 49.5724 85.4242 49.6404C84.6644 50.3049 85.3838 50.8344 85.5692 51.5899C84.778 51.6235 84.0107 51.7348 83.2664 51.6508C82.8898 51.6088 82.4911 51.2671 82.2137 50.9617C81.7618 50.4646 81.4023 49.8836 80.9932 49.327C80.2384 50.0303 81.0461 50.5305 81.0077 51.0992C79.9142 52.0532 78.6999 51.53 77.5194 51.3594C77.4103 51.3443 77.2226 51.0538 77.2567 50.9819C77.5544 50.375 77.0386 50.337 76.7292 50.0666C75.6488 49.1253 75.7618 48.6894 77.13 48.1395C77.2749 48.0808 77.3958 47.9603 77.5287 47.8681C76.6281 47.5221 76.6281 47.5221 75.2088 47.869C74.4717 48.9618 75.6357 49.6131 75.8324 50.4886C75.5299 50.4313 75.2275 50.3723 74.925 50.3151C74.9213 50.3326 74.9194 50.3485 74.9157 50.3661C75.2183 50.4127 75.5209 50.4612 75.8217 50.5078C75.998 50.6926 76.3618 50.9829 76.3243 51.046C75.5765 52.3641 75.6043 54.0219 74.2574 55.3507C73.6209 55.4244 72.7075 55.5327 71.7941 55.6392C71.7985 55.7414 71.8029 55.8436 71.8073 55.9458C73.1439 55.9945 74.4805 56.0413 75.8188 56.09C77.2117 56.1409 78.6265 55.9014 79.978 56.4504C80.1325 56.5134 80.3644 56.5806 80.4813 56.5112C81.8641 55.7059 83.2091 56.5984 84.6467 56.5722C85.1936 57.2851 85.7701 58.0352 86.4459 58.9166C85.3645 59.7069 84.2639 59.2622 83.2095 59.1755C81.9914 59.075 81.8701 57.6331 80.9702 57.2095C79.984 57.5884 80.8756 58.3572 80.409 58.9432C79.2924 59.1272 78.1237 58.8105 77.1311 58.7067C76.3777 58.2457 76.7577 57.0899 75.7127 57.146C75.0174 57.6913 76.0059 58.2583 75.6981 58.8087C75.6517 58.877 75.6209 58.9772 75.5555 59.0083C74.4835 59.5274 72.6783 59.0783 72.065 58.1059C71.5177 57.238 71.0218 56.3353 70.4143 55.2942C71.3756 54.7495 72.1793 54.2932 73.0946 53.7728C72.5219 53.19 71.5974 54.1578 71.2334 53.2791L71.1694 53.3491C71.8623 52.2753 72.9696 52.1493 74.0911 52.2137C74.1424 51.5818 73.7678 51.5133 73.4369 51.4893C71.643 51.3556 69.8455 51.2466 67.7945 51.1124C67.5961 50.843 67.2071 50.3957 66.9121 49.8928C66.407 49.0323 65.7129 49.0368 64.9263 49.3453C65.5128 48.9505 66.0223 48.4987 66.8319 48.5851C67.8737 48.6946 68.9309 48.6686 69.9825 48.6725C70.3171 48.6736 70.6593 48.6203 70.9807 48.5279C71.1184 48.4886 71.3267 48.2491 71.2991 48.1714C71.2253 47.954 71.0573 47.6179 70.9007 47.6042C69.688 47.4967 68.3969 47.6845 67.2673 47.3347C65.7214 46.8544 64.3605 47.1737 62.9594 47.6494C62.7086 47.7353 62.5091 47.9766 62.1226 48.271C63.1657 48.4386 63.9364 48.5316 64.6888 48.7091C64.8224 48.7402 64.8736 49.1264 64.9615 49.3474C65.3585 49.8846 65.7572 50.4218 66.1315 50.9306C65.9051 51.8428 65.1849 50.9998 64.8417 51.3756C64.8418 51.3685 64.8753 51.3635 64.8753 51.3635ZM259.7 59.7627C259.522 60.0113 259.343 60.2599 259.076 60.6292C259.508 60.633 259.782 60.7076 259.98 60.616C260.162 60.5312 260.404 60.2339 260.37 60.0909C260.285 59.7379 259.992 59.605 259.633 59.822C259.84 58.4992 259.006 57.7662 258.078 57.0869C257.795 56.785 257.543 56.2667 257.223 56.2181C254.872 55.8717 252.504 55.5727 249.967 56.7995C251.025 56.9373 251.792 57.0268 252.554 57.1497C252.64 57.1645 252.694 57.3729 252.76 57.4862C252.341 57.8894 251.434 57.457 251.318 58.4424C252.032 58.734 252.745 59.0256 253.805 59.4594C252.568 59.7322 251.661 59.9339 250.748 60.1391C250.264 59.543 249.797 58.9294 249.281 58.363C249.16 58.2316 248.868 58.2572 248.632 58.2058C248.603 58.7235 248.578 59.139 248.557 59.5351C248.031 59.8194 247.251 59.5766 247.078 60.4505C247.303 60.5282 247.532 60.6712 247.763 60.6749C248.195 60.6822 248.637 60.6491 249.059 60.5612C249.65 60.436 250.226 60.2437 250.809 60.0797C250.842 60.5027 251.126 60.6268 251.494 60.6758C253.053 60.8796 254.599 60.7046 256.136 60.4679C256.48 60.4145 256.797 60.1954 257.405 59.9329C256.624 59.7764 256.051 59.8348 255.809 59.579C255.201 58.9361 254.743 58.1517 254.092 57.2389C255.606 57.1658 256.868 57.1045 258.13 57.0433C258.165 58.2327 258.772 59.0905 259.7 59.7627ZM268.395 53.705C268.989 53.5975 269.608 53.5324 269.933 52.7109C269.676 52.4761 269.377 52.2022 269.148 51.9941C268.319 52.2547 267.578 52.4877 266.822 52.7242C267.264 53.3059 268.349 52.7217 268.468 53.7744C268.385 54.0132 268.293 54.2502 268.226 54.4927C268.213 54.5402 268.295 54.6131 268.334 54.6751C268.438 54.5914 268.638 54.4928 268.628 54.4293C268.586 54.1823 268.479 53.9471 268.395 53.705ZM362.555 57.0668C362.552 56.5753 362.548 56.0839 362.545 55.6188C360.284 55.3067 360.284 55.3067 359.164 55.7144C361.02 55.9349 361.02 55.9349 362.624 56.9987C363.563 58.2294 362.767 59.6528 362.89 61.0138C363.861 60.7615 363.88 59.659 364.829 59.5404C365.534 59.4532 366.398 59.7514 367.062 58.9822C366.238 58.3532 365.453 59.1989 364.736 58.8632C364.007 58.2668 363.279 57.6685 362.555 57.0668ZM180.496 48.5835C180.42 48.2112 180.584 47.6542 179.928 47.7049C179.785 47.7159 179.668 48.039 179.486 48.2929C179.915 48.3794 180.24 48.4457 180.564 48.5119C180.595 49.0142 180.744 49.3149 181.361 49.1777C181.868 49.0658 182.433 48.9633 182.918 49.0785C183.348 49.1809 183.706 49.5909 184.095 49.8638C185.378 48.6878 186.735 48.7119 188.125 49.6066C188.423 49.7977 188.689 50.0748 188.983 49.6775C189.476 49.0124 190.188 49.0415 190.885 49.0371C191.824 49.0294 192.763 49.0499 193.702 49.0581C192.83 48.6242 192.064 48.0398 191.068 48.1473C189.682 48.2955 188.286 48.3626 186.9 48.5038C186.105 48.5849 185.326 48.6521 184.589 48.2617C183.918 47.9053 183.248 48.0139 182.548 48.1945C181.874 48.3701 181.181 48.4609 180.496 48.5835ZM353.426 52.4865C352.059 51.3613 350.891 51.5696 349.796 51.6868C348.138 51.8644 346.501 52.2218 344.85 51.6489C344.62 51.5694 344.332 51.6515 344.069 51.6668C342.587 51.7525 341.1 51.7924 339.624 51.9416C337.451 52.1622 335.262 51.9916 333.084 52.2861C331.659 52.4798 330.105 52.7216 328.9 51.353C328.618 51.8138 328.708 52.4047 328.105 52.3977C327.316 52.3873 326.437 52.6121 325.76 52.3349C324.747 51.9227 323.91 52.3135 323.005 52.4835C322.912 52.5003 322.854 52.6989 322.757 52.8442C323.334 53.1064 323.884 53.3543 324.387 53.5842C327.157 52.9302 327.201 52.9323 329.197 53.9327C329.72 52.7042 330.806 53.0184 331.861 53.1562C332.208 53.2015 332.616 53.0817 332.904 53.2252C333.591 53.5641 334.12 53.5335 334.84 53.1593C336.141 52.4854 337.442 52.7011 338.443 53.8531C339.868 52.5038 339.868 52.4968 341.477 52.5655C341.891 52.5832 342.303 52.6678 342.714 52.7207C342.651 53.3419 342.603 53.7995 342.51 54.6812C343.08 54.1824 343.372 54.0106 343.549 53.7585C344.287 52.7045 345.305 52.3558 346.533 52.5197C347.399 52.6347 348.392 53.112 349.093 52.8362C350.401 52.3174 351.69 52.6722 353.426 52.4865ZM332.881 50.2128C333.887 49.9591 334.806 49.2044 336.029 49.3102C337.205 49.4138 338.373 49.7992 339.573 49.5173C341.057 50.3159 342.466 49.4844 343.896 49.2855C344.295 49.2308 344.649 48.864 345.024 48.6401C343.439 48.3902 341.966 48.4513 340.496 48.5565C339.452 48.6302 338.398 48.9257 337.372 48.8446C333.612 48.5458 329.884 48.8778 326.148 49.1747C325.887 49.1953 325.622 49.1894 325.364 49.2295C325.211 49.2545 325.067 49.3484 324.92 49.4105C325.531 49.7118 326.051 49.6723 326.556 49.7331C327.136 49.8033 327.706 49.9633 328.268 50.081C329.843 48.2927 331.302 49.8538 332.881 50.2128ZM186.817 54.9783C186.818 55.1193 186.817 55.2602 186.817 55.4029C185.697 55.3931 184.574 55.3269 183.458 55.3894C182.328 55.4518 181.063 54.9616 179.801 56.2594C180.628 56.2666 181.116 56.2867 181.604 56.2698C182.02 56.2558 182.451 56.1046 182.849 56.1715C185.777 56.6709 186.287 56.6595 188.673 55.8771C189.476 56.1518 190.281 56.49 191.12 56.6876C191.5 56.7772 191.712 56.4267 191.59 55.9148C190.723 55.6924 189.818 55.4608 188.888 55.2219C189.026 54.8038 189.151 54.4245 189.355 53.8009C188.105 54.3343 186.884 53.6384 185.399 54.3653C186.086 54.6619 186.452 54.8201 186.817 54.9783ZM184.414 53.4918C185.259 53.0359 185.688 52.6274 186.546 52.7318C187.789 52.8818 189.131 53.0221 190.374 52.5028C190.502 52.4493 190.57 52.2491 190.691 52.081C190.542 51.8895 190.406 51.6628 190.221 51.4921C189.971 51.2627 189.682 51.077 189.442 50.8969C187.972 51.5975 186.59 52.401 185.147 51.0303C185.035 50.9254 184.832 50.9166 184.672 50.8624C184.538 52.1365 182.879 51.2659 182.553 52.2689C182.99 53.083 184.336 51.9128 184.414 53.4918ZM176.203 52.4513C177.278 52.6175 178.165 52.7538 179.087 52.8957C179.081 53.5439 179.077 54.0142 179.069 54.9548C179.567 54.1136 179.762 53.6221 180.1 53.2639C180.436 52.9057 180.915 52.6827 181.301 52.4201C180.962 51.7107 180.634 51.0209 180.265 50.2461C179.547 50.0461 178.777 49.8315 177.709 49.5333C178.404 50.3778 178.868 50.9403 179.357 51.5329C178.428 52.4478 177.243 51.828 176.203 52.4513ZM255.762 52.5766C254.79 51.816 254.978 50.6321 253.804 50.4651C253.842 50.7737 253.79 51.0639 253.911 51.227C254.673 52.2518 254.566 53.2338 253.87 54.23C253.849 54.2598 254.05 54.4465 254.229 54.6542C254.543 54.2306 254.839 53.8316 255.133 53.4343C256.045 53.252 256.949 53.0714 257.852 52.8926C257.841 52.7938 257.831 52.6933 257.82 52.5946C257.09 52.5882 256.36 52.5819 255.762 52.5766ZM258.284 49.6552C258.335 49.4707 258.384 49.2861 258.435 49.1016C256.747 48.9706 255.105 48.6146 253.464 48.2568C252.998 48.1558 252.419 48.5753 251.542 48.8759C252.262 49.2133 252.69 49.6028 252.999 49.5245C253.954 49.2827 254.838 49.4859 255.764 49.612C256.591 49.7232 257.442 49.6478 258.284 49.6552ZM172.828 52.6438C171.122 51.5773 169.284 52.3028 167.585 51.7314C167.506 51.7043 167.215 51.9836 167.236 52.0348C167.318 52.2417 167.479 52.5707 167.62 52.5737C169.357 52.6276 171.093 52.6287 172.828 52.6438ZM372.906 50.7153C372.145 51.2178 371.023 50.9385 370.361 51.9561C371.297 52.0982 372.137 52.2271 372.977 52.3506C373.061 52.3637 373.151 52.3557 373.237 52.3476C373.324 52.3396 373.41 52.321 373.497 52.3006C373.581 52.2802 373.668 52.258 373.749 52.2253C373.981 52.1322 374.211 52.0355 374.679 51.8406C373.826 51.2976 373.399 51.0261 372.906 50.7153ZM367.098 51.6441C367.211 52.5505 367.289 53.1694 367.386 53.9453C368.252 53.2448 368.688 52.4348 369.02 51.1694C368.194 51.3735 367.661 51.5063 367.098 51.6441ZM374.821 55.3155C374.847 55.2188 374.871 55.1222 374.896 55.0255C373.792 55.0159 372.689 55.0062 371.569 54.9965C371.806 56.3056 372.122 56.7716 372.688 56.7096C372.739 56.3877 372.791 56.0658 372.862 55.6207C373.49 55.5223 374.155 55.4189 374.821 55.3155ZM363.629 55.7269C364.972 55.8654 365.905 55.9388 366.832 56.0666C367.302 56.1306 367.64 56.0666 367.798 55.573C366.556 54.9316 365.324 55.0846 363.629 55.7269ZM217.232 51.9339C217.288 51.7617 217.344 51.5879 217.402 51.4157C217.057 51.2013 216.722 50.9677 216.363 50.7813C216.061 50.6237 215.683 50.5112 215.558 50.9575C215.512 51.1174 215.721 51.468 215.896 51.547C216.316 51.7321 216.783 51.8102 217.232 51.9339ZM162.882 58.4563C162.687 57.7253 162.087 57.6091 161.48 57.5527C161.352 57.541 161.146 57.7066 161.083 57.8399C161.029 57.9522 161.085 58.2328 161.174 58.2776C161.708 58.55 162.251 58.9 162.882 58.4563ZM175.276 51.7703C173.779 53.369 173.728 53.6716 174.616 54.0686C174.717 53.8387 174.839 53.6161 174.909 53.3771C175.006 53.0556 175.063 52.7214 175.276 51.7703ZM170.896 48.8556C170.914 48.743 170.935 48.6287 170.953 48.5161C170.287 48.3535 169.624 48.1769 168.953 48.0495C168.858 48.031 168.607 48.2719 168.619 48.3724C168.643 48.5928 168.788 48.9834 168.885 48.9842C169.556 48.9866 170.226 48.9078 170.896 48.8556ZM58.885 48.0577C59.5878 48.6681 60.0214 49.0453 60.5337 49.4884C60.72 49.1271 60.8697 48.9241 60.9281 48.6956C60.9846 48.4759 60.9445 48.2325 60.948 47.8344C60.3203 47.9029 59.7737 47.9616 58.885 48.0577ZM425.506 47.8134C425.774 47.9532 425.984 48.1135 426.218 48.1755C426.75 48.3175 427.241 48.2126 427.553 47.7186C427.625 47.6047 427.625 47.344 427.543 47.2499C427.076 46.7103 426.625 47.0869 426.186 47.3279C426.038 47.4076 425.906 47.5245 425.506 47.8134ZM271.631 49.0336C272.42 49.4192 272.76 49.6512 273.134 49.739C273.286 49.7738 273.55 49.5277 273.684 49.3492C273.741 49.2739 273.64 48.9648 273.529 48.9004C273.245 48.7359 272.923 48.5781 272.606 48.5594C272.387 48.5452 272.155 48.7651 271.631 49.0336ZM264.087 51.6505C263.487 50.4809 263.477 50.4879 262.783 50.0414C262.636 50.9068 262.798 51.5688 264.087 51.6505ZM386.146 48.1076C386.756 48.4476 387.019 48.7088 387.282 48.7076C387.546 48.7064 387.809 48.4427 388.073 48.2935C387.833 48.1118 387.615 47.8298 387.35 47.7764C387.098 47.7249 386.799 47.9125 386.146 48.1076ZM255.19 55.0008C255.528 55.2345 255.697 55.4438 255.889 55.4648C256.343 55.5146 256.695 55.102 256.563 54.671C256.505 54.482 256.155 54.1901 256.115 54.2162C255.812 54.4108 255.554 54.6763 255.19 55.0008ZM163.786 55.1297C164.079 54.8962 164.336 54.7082 164.57 54.4971C164.694 54.3854 164.823 54.2439 164.871 54.091C164.915 53.9558 164.867 53.781 164.823 53.6344C164.805 53.5796 164.688 53.5187 164.617 53.5198C163.8 53.5321 163.443 54.1244 163.786 55.1297ZM195.608 56.0926C194.943 56.0057 194.278 55.9031 193.609 55.8461C193.516 55.8383 193.403 56.0504 193.3 56.1623C193.34 56.2366 193.36 56.346 193.421 56.3765C194.184 56.7759 194.882 56.3751 195.608 56.0926ZM160.6 54.4342C160.67 54.4806 160.733 54.5517 160.811 54.5717C161.274 54.6938 161.651 54.5861 161.85 54.114C161.874 54.0596 161.799 53.8986 161.783 53.9003C161.473 53.9416 161.154 53.9705 160.859 54.0683C160.744 54.1061 160.684 54.3081 160.6 54.4342ZM260.969 52.5974C260.646 52.5083 260.406 52.3741 260.185 52.3986C259.903 52.4296 259.636 52.584 259.367 52.7015C259.351 52.7084 259.371 52.8671 259.413 52.9308C259.658 53.3011 259.972 53.2246 260.287 53.0371C260.496 52.9139 260.695 52.7765 260.969 52.5974ZM199.585 66.2348C200.326 65.3253 199.751 65.0314 199.38 64.6987C199.284 64.6116 199.022 64.5882 198.922 64.6577C198.813 64.7343 198.706 65.0082 198.762 65.1002C198.975 65.4632 199.253 65.7898 199.585 66.2348ZM253.319 52.6134C252.811 52.0982 252.27 52.2714 251.731 52.5274C251.671 52.555 251.604 52.7007 251.628 52.7484C251.694 52.8829 251.817 53.1041 251.898 53.0943C252.367 53.0455 252.929 53.2653 253.319 52.6134ZM268.431 57.0504C268.46 56.952 268.491 56.8519 268.52 56.7535C268.122 56.5492 267.736 56.3045 267.315 56.1688C267.194 56.1289 266.969 56.4088 266.792 56.5412C266.942 56.708 267.07 56.9822 267.246 57.0172C267.629 57.0928 268.035 57.047 268.431 57.0504ZM176.678 54.3438C176.471 54.3015 176.28 54.1941 176.174 54.2496C175.584 54.5632 175.893 55.1472 175.809 55.6151C175.8 55.6678 175.875 55.7337 175.912 55.7939C175.992 55.6642 176.081 55.5399 176.151 55.4049C176.33 55.0577 176.499 54.7069 176.678 54.3438ZM264.89 52.6616C264.683 52.5558 264.615 52.5024 264.537 52.4841C264.064 52.369 263.721 52.5316 263.594 53.0096C263.557 53.1449 263.658 53.3167 263.697 53.472C263.985 53.3847 264.289 53.3275 264.554 53.1959C264.678 53.1353 264.729 52.9297 264.89 52.6616ZM197.412 51.0757C197.472 50.9987 197.533 50.9217 197.593 50.8448C197.471 50.6834 197.384 50.4572 197.222 50.3783C196.991 50.2635 196.742 49.8527 196.336 50.4181C196.704 50.645 197.058 50.8595 197.412 51.0757ZM362.832 52.1441C363.054 52.3116 363.243 52.5211 363.301 52.4882C363.588 52.3321 363.84 52.1124 364.104 51.9156C363.863 51.8466 363.615 51.7035 363.387 51.735C363.197 51.7597 363.033 51.9873 362.832 52.1441ZM206.481 47.9471C206.481 47.9066 206.481 47.8679 206.482 47.8274C206.094 47.824 205.705 47.8206 205.317 47.8172C205.317 47.8577 205.317 47.8965 205.316 47.937C205.704 47.9404 206.091 47.9437 206.481 47.9471ZM52.6144 50.6435C52.7553 50.4439 52.9526 50.2431 52.9213 50.1952C52.7926 50.0021 52.5931 49.8559 52.4202 49.6924C52.3006 49.864 52.045 50.096 52.0899 50.1968C52.171 50.3842 52.4272 50.4957 52.6144 50.6435ZM357.172 54.5731C357.257 54.5545 357.38 54.5644 357.42 54.5119C357.664 54.1934 357.89 53.8607 358.112 53.5244C358.121 53.5122 357.995 53.3631 357.928 53.359C357.41 53.3386 357.143 53.671 357.016 54.1085C356.978 54.2368 357.116 54.4159 357.172 54.5731ZM380.802 47.6629C380.788 47.8125 380.774 47.9638 380.759 48.1134C381.245 48.0754 381.734 48.0391 382.22 48.0011C382.216 47.8919 382.21 47.7826 382.205 47.6751C381.737 47.671 381.27 47.667 380.802 47.6629ZM194.009 52.1751C193.793 51.9707 193.704 51.8131 193.59 51.7892C193.096 51.6898 192.612 52.0484 192.782 52.367C192.841 52.4785 193.056 52.6054 193.155 52.5763C193.436 52.4942 193.693 52.3309 194.009 52.1751ZM262.386 56.36C262.457 56.5051 262.494 56.7133 262.61 56.7759C262.69 56.8207 262.88 56.6691 263.02 56.6034C262.907 56.4121 262.796 56.2209 262.683 56.0297C262.585 56.1398 262.486 56.2499 262.386 56.36ZM256.046 58.3903C256.244 58.496 256.425 58.6226 256.623 58.6737C256.669 58.6846 256.876 58.3606 256.847 58.3251C256.718 58.1689 256.53 58.0616 256.364 57.9369C256.276 58.0612 256.189 58.1855 256.046 58.3903ZM268.535 48.9009C268.535 48.959 268.534 49.0189 268.534 49.077C268.909 49.0803 269.286 49.0836 269.661 49.0869C269.662 49.0287 269.662 48.9688 269.663 48.9107C269.288 48.9074 268.912 48.9042 268.535 48.9009ZM82.4336 49.794C82.626 49.9454 82.7956 50.086 82.9795 50.2074C82.9953 50.2181 83.1568 50.0769 83.1447 50.0503C83.0601 49.847 82.9491 49.6541 82.8469 49.4576C82.7351 49.5483 82.6234 49.6389 82.4336 49.794ZM367.566 49.0799C367.74 48.8682 367.931 48.6391 368.119 48.4083C367.981 48.3296 367.783 48.1499 367.716 48.1899C367.463 48.3409 367.251 48.5628 367.024 48.7581C367.159 48.8385 367.292 48.9172 367.566 49.0799ZM167.851 58.8097C168.047 58.748 168.205 58.7 168.36 58.6503C168.291 58.5088 168.201 58.2402 168.156 58.2469C167.949 58.2786 167.756 58.3896 167.556 58.4707C167.659 58.5896 167.762 58.7067 167.851 58.8097ZM73.5268 57.1216C73.4095 57.0466 73.2957 56.9628 73.1694 56.9071C73.1448 56.8963 73.0133 57.0326 73.0254 57.0574C73.0825 57.1759 73.1697 57.2788 73.2462 57.3869C73.3403 57.2997 73.4344 57.2124 73.5268 57.1216ZM269.744 55.1013C269.768 55.1738 269.794 55.2462 269.818 55.3169C269.944 55.244 270.098 55.1925 270.181 55.0858C270.215 55.0438 270.097 54.879 270.048 54.7711C269.947 54.8829 269.846 54.9913 269.744 55.1013ZM151.652 50.7891C151.591 50.7604 151.519 50.6963 151.473 50.7118C151.429 50.7255 151.41 50.8222 151.382 50.8819C151.441 50.9106 151.515 50.9746 151.559 50.9592C151.603 50.9437 151.622 50.8487 151.652 50.7891ZM70.8606 49.9731C71.0404 50.1702 71.1847 50.3775 71.3808 50.5149C71.4404 50.5559 71.639 50.4009 71.7735 50.3351C71.6289 50.1471 71.5093 49.9312 71.3291 49.7887C71.2696 49.7424 71.0551 49.8902 70.8606 49.9731ZM190.761 50.3395C190.718 50.4659 190.655 50.5869 190.644 50.7137C190.64 50.7612 190.794 50.8753 190.811 50.8631C190.923 50.7901 191.015 50.6887 191.115 50.598C190.998 50.5124 190.88 50.4268 190.761 50.3395ZM157.681 58.506C157.772 58.4029 157.861 58.3015 157.952 58.1984C157.889 58.1502 157.78 58.0507 157.768 58.0629C157.667 58.1501 157.583 58.2568 157.494 58.3582C157.555 58.4063 157.618 58.4561 157.681 58.506ZM114.117 47.8739C114.182 47.8304 114.25 47.787 114.315 47.7435C114.21 47.6598 114.108 47.5109 114.002 47.5083C113.889 47.5073 113.775 47.6454 113.662 47.722C113.813 47.7726 113.966 47.8232 114.117 47.8739ZM197.079 57.7471C197.12 57.8162 197.162 57.8853 197.202 57.9525C197.282 57.8652 197.362 57.7796 197.442 57.6922C197.368 57.6545 197.293 57.5852 197.223 57.5881C197.173 57.5912 197.127 57.6912 197.079 57.7471ZM258.076 55.1598C258.193 55.3846 258.248 55.6087 258.332 55.62C258.463 55.637 258.659 55.5436 258.739 55.4334C258.794 55.3563 258.703 55.1723 258.677 55.0365C258.487 55.0753 258.296 55.1142 258.076 55.1598ZM357.067 55.7824C357.207 55.8312 357.37 55.9471 357.48 55.9093C357.601 55.8681 357.674 55.6837 357.766 55.5612C357.617 55.5177 357.452 55.414 357.323 55.4482C357.217 55.4754 357.151 55.6633 357.067 55.7824ZM372.558 48.4153C372.709 48.4448 372.861 48.4743 373.014 48.5021C373.032 48.3895 373.051 48.2787 373.07 48.1661C372.909 48.1876 372.749 48.2003 372.592 48.2359C372.569 48.241 372.569 48.352 372.558 48.4153ZM370.917 48.1332C370.848 48.1802 370.779 48.2272 370.71 48.2741C370.848 48.3528 370.981 48.4685 371.129 48.4944C371.196 48.5056 371.294 48.3409 371.379 48.2553C371.225 48.2152 371.072 48.1751 370.917 48.1332ZM79.1975 50.4193C79.1928 50.3558 79.188 50.2941 79.1833 50.2307C79.0879 50.258 78.9925 50.2871 78.8972 50.3145C78.9355 50.3677 78.9629 50.4472 79.0121 50.4634C79.0631 50.4815 79.1339 50.4381 79.1975 50.4193ZM92.3908 47.2298C92.4577 47.2304 92.5282 47.231 92.5969 47.2316C92.5502 47.1255 92.5053 47.0212 92.4587 46.9151C92.4002 46.9516 92.2996 46.9859 92.2957 47.0282C92.2898 47.0898 92.3544 47.1591 92.3908 47.2298ZM67.6864 49.5737C67.7523 49.687 67.82 49.8021 67.886 49.9154C67.948 49.8772 68.0082 49.8407 68.0701 49.8025C67.9972 49.6856 67.9225 49.5687 67.8495 49.4518C67.7946 49.4919 67.7413 49.5337 67.6864 49.5737ZM362.749 54.1937C362.85 54.0854 362.954 53.9771 363.055 53.8705C362.994 53.8189 362.91 53.7107 362.875 53.7245C362.725 53.7849 362.59 53.8806 362.45 53.9639C362.55 54.0388 362.649 54.1154 362.749 54.1937ZM360.235 60.9518C360.317 60.9526 360.398 60.9533 360.479 60.954C360.476 60.8923 360.481 60.7778 360.469 60.776C360.39 60.763 360.305 60.7745 360.224 60.7791C360.227 60.839 360.23 60.8972 360.235 60.9518ZM73.0276 49.9339C73.0705 49.8726 73.1467 49.8134 73.149 49.7517C73.1514 49.6795 73.0904 49.605 73.0576 49.5325C72.981 49.6234 72.9045 49.7144 72.828 49.807C72.8945 49.8481 72.9611 49.891 73.0276 49.9339ZM372.378 53.3354C372.202 53.5329 372.049 53.7042 371.894 53.8772C371.997 53.9468 372.128 54.0924 372.199 54.0684C372.339 54.0185 372.489 53.8947 372.549 53.7631C372.586 53.6824 372.461 53.5299 372.378 53.3354ZM200.703 50.9899C200.746 51.0537 200.79 51.1175 200.833 51.1813C200.943 51.1012 201.055 51.0229 201.154 50.9322C201.161 50.9252 201.069 50.8117 201.024 50.7479C200.917 50.828 200.809 50.9081 200.703 50.9899ZM202.446 50.8308C202.469 50.8908 202.477 50.9772 202.521 51.004C202.559 51.0273 202.639 50.9822 202.699 50.9686C202.675 50.9085 202.665 50.8256 202.619 50.797C202.584 50.7721 202.505 50.8172 202.446 50.8308ZM261.663 60.4915C261.696 60.5499 261.734 60.6612 261.762 60.6597C261.921 60.647 262.078 60.6078 262.235 60.5775C262.202 60.5173 262.166 60.4043 262.138 60.4076C261.979 60.4203 261.822 60.4594 261.663 60.4915ZM369.852 55.5839L369.733 55.7044L369.967 55.7065L369.852 55.5839ZM165.257 48.6144C165.303 48.687 165.356 48.8231 165.391 48.8181C165.543 48.7983 165.688 48.7379 165.836 48.6916C165.791 48.6208 165.738 48.4829 165.702 48.4879C165.551 48.5077 165.406 48.5681 165.257 48.6144ZM261.087 56.8807C261.15 56.9006 261.213 56.9223 261.277 56.9422C261.237 56.8749 261.198 56.8077 261.159 56.7404C261.133 56.7877 261.11 56.8333 261.087 56.8807ZM320.636 49.2939C320.57 49.3303 320.506 49.365 320.441 49.4014C320.488 49.4582 320.563 49.568 320.575 49.5611C320.665 49.5126 320.743 49.441 320.825 49.3766C320.762 49.3478 320.699 49.3209 320.636 49.2939ZM118.707 47.7572L118.731 47.6253L118.565 47.6679L118.707 47.7572ZM361.185 49.1087C361.116 49.1592 361.049 49.2097 360.98 49.2602C361.118 49.3424 361.249 49.4369 361.397 49.4946C361.43 49.5072 361.516 49.3882 361.576 49.3288C361.446 49.2555 361.317 49.1821 361.185 49.1087ZM222.202 48.1478L222.397 48.0684L222.204 47.9857L222.202 48.1478ZM82.795 46.9294L82.8191 46.7922L82.6513 46.8366L82.795 46.9294ZM241.924 54.7705L242.098 54.7949L242.038 54.6024L241.924 54.7705ZM240.967 54.6547L240.878 54.7931L241.02 54.8119L240.967 54.6547ZM158.849 54.4559C158.836 54.4012 158.842 54.3202 158.807 54.297C158.756 54.2631 158.678 54.2695 158.611 54.2601C158.632 54.3554 158.652 54.4507 158.674 54.546C158.732 54.5148 158.791 54.4854 158.849 54.4559ZM379.744 55.2616L379.553 55.1542L379.523 55.3142L379.744 55.2616ZM57.832 50.0408C57.8519 49.9811 57.8718 49.9214 57.8917 49.8599C57.8372 49.8436 57.7846 49.8255 57.7301 49.8092C57.7119 49.8689 57.6744 49.9302 57.6827 49.9867C57.686 50.0114 57.7793 50.0227 57.832 50.0408ZM77.2615 57.2934C77.4003 57.3386 77.4863 57.3676 77.5741 57.3948C77.557 57.34 77.5473 57.243 77.5227 57.2393C77.4593 57.2317 77.3904 57.2628 77.2615 57.2934ZM269.988 58.4662L270.174 58.5717L270.191 58.4028L269.988 58.4662ZM169.913 50.2932C169.783 50.2145 169.655 50.1183 169.513 50.066C169.473 50.0515 169.385 50.1635 169.318 50.2175C169.456 50.3033 169.589 50.4013 169.737 50.4643C169.766 50.4769 169.854 50.3543 169.913 50.2932Z" fill="#97B6C2"/>
<path d="M80.0805 65.0462C81.3755 63.9953 82.8151 63.9498 84.2789 64.5509C85.2162 64.9343 86.0455 64.9855 87.0591 64.6914C88.4825 64.2793 89.9766 64.4421 91.3275 65.0669C91.9204 64.7532 92.1972 64.3117 91.8903 63.7559C91.3059 62.6939 91.843 61.9059 92.4294 61.1149C92.7628 60.6651 93.2158 60.4259 93.7915 60.4679C94.6365 60.5299 95.4796 60.5936 96.4355 60.6672C96.138 62.4578 95.1926 63.4078 93.3792 63.7073C94.5558 64.3235 95.5703 64.3324 96.651 63.8274C96.895 63.1144 97.0411 62.3265 97.4219 61.6763C97.869 60.914 98.4871 60.331 99.5888 60.6489C100.218 60.8305 100.939 60.6924 101.7 60.699C101.475 62.2613 100.564 63.1957 99.2611 63.6741C99.2775 64.4211 99.7318 64.2383 100.031 64.2691C100.378 64.3056 100.732 64.2823 101.264 64.2869C101.215 64.6758 101.109 65.0465 101.141 65.4026C101.178 65.8187 101.337 66.2234 101.456 66.6842C100.392 67.4941 99.3543 66.9266 98.4267 66.6455C97.7801 66.4496 97.3893 66.4268 96.7647 66.7507C95.2606 67.5321 93.7347 67.3778 92.3877 66.3056C91.1415 67.6018 89.615 67.3207 88.2313 67.0268C87.4488 66.8615 86.71 66.7546 85.9224 66.7689C84.6998 66.7917 83.5132 66.9099 82.2957 67.1529C81.2775 67.3572 80.2016 66.504 79.0162 66.4972C76.6647 66.4855 76.2213 66.0184 75.7885 63.545C75.1817 63.434 74.531 63.3138 73.8363 63.188C73.8636 63.4947 73.8263 63.7269 73.8964 63.7662C74.9131 64.337 75.4133 65.1552 75.256 66.4204C73.6723 66.8416 72.5251 66.0918 71.466 65.1313C71.293 64.9748 71.134 64.6211 71.1921 64.4243C71.5425 63.2208 70.6995 62.7308 69.9484 62.0055C69.4658 62.4065 69.0737 62.7307 68.6443 63.0863C69.154 64.0226 69.6411 64.9181 70.156 65.8668C69.0625 66.6358 68.1761 65.6698 67.4482 65.9171C66.4085 64.7508 65.4874 63.7193 64.5507 62.6683C63.6267 62.5686 62.687 62.4688 61.661 62.3577C61.5789 61.8743 61.4817 61.3028 61.3578 60.5689C60.6638 60.7584 60.0953 60.9137 59.5267 61.0691L59.5735 61.1522C59.1545 61.1345 58.7253 61.0603 58.3179 61.1202C58.1151 61.1501 57.9505 61.4305 57.7676 61.5962C58 61.8132 58.2324 62.0301 58.463 62.247L58.3789 62.1952C57.1668 63.0301 55.973 62.7714 54.786 62.1321L54.7184 62.2126C54.9154 61.8356 55.1125 61.4586 55.3096 61.0816L55.2545 61.1357C56.0881 60.6779 56.9219 60.2184 58.0847 59.5803C59.9035 59.679 62.0781 59.7755 64.2487 59.9212C65.7258 60.0204 67.1992 60.3345 68.6539 59.7606C68.8872 59.6693 69.2047 59.6298 69.4312 59.711C71.0152 60.2692 72.6716 59.9965 74.2811 60.0599C75.1404 60.0938 75.4453 60.6742 76.0434 60.9754C76.7261 60.6537 77.3983 60.1294 78.1159 60.0581C78.9128 59.977 79.7501 60.3102 80.6312 60.4746C80.1027 61.4899 79.1927 60.3987 78.6767 61.1956C79.0472 61.5318 79.4562 61.9018 79.8529 62.2611C79.687 62.5027 79.6202 62.6835 79.4926 62.7705C78.8707 63.1861 77.9104 62.6087 77.323 63.5108C77.8163 64.1158 78.4667 63.8625 79.0055 63.8831C79.8349 63.9167 79.9548 64.5114 80.1205 65.1012C79.5683 64.8004 79.0321 64.6707 78.4983 65.2931C79.1212 65.5716 79.7116 66.1387 80.0805 65.0462Z" fill="#97B6C2"/>
<path d="M149.32 58.335C149.209 57.4638 149.743 57.0581 150.458 56.8459C151.661 56.49 152.821 56.8436 153.972 57.1461C153.968 57.1425 153.886 57.0537 153.883 57.0502C153.942 57.7218 154.007 58.397 154.084 59.2168C153.87 59.3312 153.54 59.4393 153.305 59.6521C153.08 59.858 152.955 60.1758 152.787 60.4438C153.079 60.575 153.365 60.7237 153.665 60.832C153.823 60.8897 154.004 60.8772 154.24 60.9022C153.973 61.6802 153.84 62.5598 152.993 62.9064C151.867 63.3669 150.665 63.8373 149.458 63.3371C148.852 63.087 148.378 62.9401 147.738 63.19C147.268 63.3744 146.707 63.4153 146.195 63.3861C144.557 63.2961 142.944 63.1252 141.305 63.5813C140.353 63.846 139.425 63.3834 138.618 62.818C136.86 63.243 135.158 63.9398 133.271 63.5041C132.712 63.3742 132.069 63.6099 131.464 63.668C130.858 63.7261 130.251 63.8107 129.644 63.8142C129.117 63.8184 129.08 63.7406 128.393 62.5861C128.749 62.1382 129.074 61.6109 129.518 61.2131C129.817 60.9462 130.274 60.7547 130.673 60.7282C131.628 60.6661 132.591 60.722 133.526 60.7302C133.767 61.1621 133.963 61.5126 134.192 61.9233C134.61 61.5411 134.99 61.1939 135.467 60.7559C136.626 61.1994 138.125 59.9935 139.324 61.5065C139.708 61.2228 140.116 60.7384 140.619 60.6019C141.17 60.4534 141.817 60.5771 142.407 60.6738C143.145 60.7965 143.871 61.0107 144.952 61.2703C146.238 60.8394 147.898 59.7582 149.718 61.3119C150.086 60.9998 150.471 60.6755 150.796 60.3983C150.732 59.2562 149.959 58.7986 149.275 58.2729L149.32 58.335ZM151.16 61.6592C151.138 61.7241 151.116 61.7891 151.093 61.8541C151.221 61.8711 151.351 61.9021 151.48 61.8962C151.512 61.8947 151.539 61.777 151.57 61.712C151.432 61.695 151.297 61.6762 151.16 61.6592Z" fill="#97B6C2"/>
<path d="M-29.9481 44.8073C-29.2833 44.3163 -28.5385 44.1608 -27.716 44.1732C-25.0935 44.2155 -22.4625 44.094 -19.8519 44.2806C-16.9155 44.4912 -13.9667 44.2826 -11.0391 44.6922C-10.0081 44.8368 -8.937 44.8233 -7.89351 44.7443C-4.56033 44.4951 -1.24587 44.9767 2.08186 44.9476C4.44246 44.9259 6.80495 45.0928 9.16817 45.175L9.14348 45.1801C9.40818 45.5294 9.67286 45.8788 9.948 46.2423C9.44646 46.1868 8.81879 46.051 8.19686 46.0649C7.50092 46.0818 6.81068 46.2519 6.11425 46.3251C5.13216 46.431 4.19239 46.3347 3.41984 45.6428C4.41267 45.7184 5.39499 45.7833 6.37909 45.85C5.82216 45.4805 5.25703 45.4474 4.69483 45.4795C4.28243 45.5041 3.87457 45.6133 3.46351 45.6854C3.4031 45.7448 3.35302 45.8307 3.28056 45.8582C1.8207 46.4144 0.391789 46.4495 -0.974547 45.5745C-0.135766 45.5395 0.706731 46.2937 1.79225 45.4366C0.703187 45.4887 -0.133908 45.529 -0.969212 45.5692C-2.88967 46.4244 -4.78336 46.6351 -6.64768 45.296C-7.70283 45.9033 -8.77369 46.4964 -10.0638 46.168L-10.0045 46.232C-10.6139 45.2226 -10.7824 45.1489 -11.5277 45.5722C-11.8941 45.7804 -12.2571 45.9921 -12.6236 46.2056C-13.7664 45.5579 -13.7682 45.5597 -14.4478 46.3271C-13.7126 46.256 -13.1396 46.1993 -12.5667 46.1444C-13.0728 47.2216 -14.2243 46.3519 -14.9071 46.8885C-14.9891 47.5977 -14.795 48.1595 -14.0685 48.2839C-13.2067 48.4323 -12.3657 48.5524 -11.719 49.5322C-12.067 49.6471 -12.3754 49.8646 -12.6375 49.8165C-13.742 49.6184 -14.8317 49.3429 -16.1924 49.0369C-17.2372 49.861 -18.667 49.3975 -19.9748 49.2892C-20.5297 48.689 -19.8228 48.4151 -19.89 47.8438C-20.1983 47.6421 -20.5941 47.3849 -21.2369 46.9671C-20.3517 46.8551 -19.7204 46.7743 -18.9762 46.6786C-19.2478 46.1196 -19.4365 45.7339 -19.613 45.3695C-19.808 45.3132 -19.9762 45.2114 -20.1279 45.2312C-20.8968 45.3337 -21.6726 45.4185 -22.4195 45.6181C-22.6984 45.6931 -22.969 46.0219 -23.1071 46.3026C-23.1735 46.4376 -22.9065 46.7236 -22.8116 46.9516C-22.7512 47.0984 -22.7279 47.2589 -22.6735 47.4778C-24.4693 47.7792 -23.5619 45.9305 -24.4903 45.334C-25.4926 45.3306 -26.6143 45.0918 -27.8628 45.4543C-28.8535 45.7416 -30.1123 45.861 -31.0413 44.9263L-31.0964 44.9875C-30.7101 44.9274 -30.3221 44.8692 -29.9305 44.8092C-29.6168 44.7908 -29.3066 44.7706 -28.9964 44.7522C-29.0083 44.6974 -29.0184 44.6445 -29.0302 44.5898C-29.3373 44.6629 -29.6428 44.7359 -29.9481 44.8073ZM-17.1463 45.3083C-17.6342 45.7003 -18.0173 46.007 -18.4466 46.3521C-18.0263 47.0339 -17.6772 47.6024 -17.2742 48.2577C-16.7441 47.8642 -16.3452 47.57 -15.8683 47.2166C-16.3256 46.5326 -16.6994 45.9745 -17.1463 45.3083ZM-3.74633 45.4798C-3.8205 45.5021 -3.89467 45.5226 -3.96885 45.5448C-3.90757 45.5876 -3.83784 45.6728 -3.78843 45.6626C-3.6896 45.6406 -3.60436 45.5638 -3.5123 45.51C-3.58972 45.5006 -3.66714 45.4893 -3.74633 45.4798Z" fill="#97B6C2"/>
<path d="M127.722 58.5971C128.018 58.7829 128.314 58.9705 128.586 59.1402C127.849 60.5482 126.778 60.1249 125.883 60.2316C124.698 60.3745 124.25 59.3736 123.458 58.6709C122.986 58.9063 122.499 59.2421 121.962 59.3889C121.384 59.5476 120.748 59.6284 120.158 59.5598C119.569 59.4913 119.008 59.1957 118.386 58.9825C117.587 59.6783 116.542 59.9599 115.417 59.9377C114.33 59.9159 113.529 59.2571 112.705 58.2247C112.699 58.9328 112.696 59.2587 112.691 59.7747C111.63 59.8219 110.54 59.8705 109.5 59.916C108.248 58.6826 108.248 58.6826 107.684 57.0818C110.13 56.9657 112.568 56.9288 114.989 56.6998C115.983 56.6063 116.726 57.409 117.743 57.129C118.57 56.902 119.467 56.8816 120.335 56.8698C120.839 56.8619 121.407 56.9408 121.835 57.1788C122.347 57.4634 122.665 57.3869 123.216 57.2261C124.104 56.9679 125.112 57.1334 126.069 57.0907C127.179 57.0405 127.653 57.6576 127.781 58.6593C127.576 58.7086 127.373 58.7597 127.17 58.8125C127.23 58.843 127.316 58.9142 127.344 58.895C127.48 58.8117 127.599 58.7 127.722 58.5971Z" fill="#97B6C2"/>
<path d="M138.737 54.4768C140.056 53.3786 141.565 52.851 143.276 53.0843C143.498 53.1145 143.667 53.5475 143.967 53.9324C144.526 53.6431 145.147 53.1465 145.842 53.0046C146.673 52.8357 147.574 52.8981 148.426 53.0113C148.736 53.0527 148.989 53.5288 149.39 53.9304C150.104 53.8802 150.438 52.6096 151.452 52.8897C151.947 53.0261 152.507 53.0363 152.93 53.2866C153.264 53.485 153.434 53.9621 153.682 54.3043C153.687 54.2937 153.714 54.2041 153.718 54.1936C153.389 54.6787 153.059 55.1761 152.736 55.6577C150.892 55.6416 149.147 55.621 147.401 55.6146C146.795 55.6129 146.184 55.6022 145.581 55.6639C144.396 55.7857 144.398 55.8051 143.067 55.0853C141.612 56.0679 140.01 56.5507 138.291 55.5263L138.204 55.5854C138.407 55.1926 138.608 54.8016 138.808 54.4088L138.737 54.4768Z" fill="#97B6C2"/>
<path d="M85.912 55.0649C87.6789 52.2337 87.6789 52.2337 90.9415 52.7941C91.2446 53.1931 90.8288 53.4027 90.7223 53.7012C90.6482 53.9101 90.6188 54.2534 90.7374 54.3918C91.0163 54.7184 91.4664 54.6166 91.6189 54.3026C92.6 52.2872 94.2052 52.2308 96.2078 52.8648C96.1329 53.3697 96.0526 53.8992 95.9647 54.485C97.1959 54.693 97.1895 53.2133 98.1255 53.1316C98.8177 53.1482 98.3573 53.8259 98.6966 54.0966C98.7846 54.1027 99.0112 54.1822 99.077 54.1123C99.3757 53.7961 99.5682 53.3362 99.9188 53.1244C100.238 52.9299 100.758 52.8463 101.102 52.9639C101.55 53.1175 101.667 53.6012 101.426 54.0588C101.182 54.52 100.907 54.965 100.614 55.4715C99.602 55.7146 98.554 55.1012 97.544 55.5803C97.2857 55.7031 96.802 55.6232 96.5587 55.4467C95.9846 55.0277 95.359 55.0557 94.7973 55.2358C93.5908 55.6233 92.3957 55.5107 91.172 55.4472C90.3181 55.4028 89.4534 55.582 88.5932 55.6484C87.6449 55.7177 86.6731 55.8642 85.912 55.0649ZM88.707 53.5021C88.4808 53.5883 88.2494 53.669 88.0335 53.7799C88.0194 53.7868 88.1306 54.1542 88.1817 54.1529C88.416 54.1496 88.6509 54.0865 88.8787 54.0198C88.937 54.0027 89.021 53.8607 89.0036 53.8341C88.9324 53.7225 88.8257 53.63 88.707 53.5021Z" fill="#97B6C2"/>
<path d="M35.6099 59.5464C36.003 60.3143 36.7559 60.231 37.3975 60.1838C38.0638 60.135 38.7161 59.8712 39.3834 59.7008C39.63 60.1117 39.8436 60.4676 40.1457 60.9705C40.8068 60.7085 41.4705 60.3461 42.1782 60.1938C42.9141 60.0364 43.6922 60.0855 44.6562 60.034C44.4308 60.6344 44.2288 61.1717 44.0322 61.7055C44.0357 61.702 44.0908 61.6461 44.0908 61.6461C42.8949 62.645 41.5968 62.0189 40.3297 61.8828C39.9144 61.8387 39.3668 61.6031 39.1063 61.784C38.0023 62.5424 36.3556 61.288 35.5125 62.8307C35.8846 63.5897 36.6645 63.4379 37.3255 63.5969C37.8194 63.7157 38.3397 63.8471 38.7583 64.1132C38.9861 64.2579 39.174 64.7299 39.1135 64.9918C39.0568 65.2344 38.6614 65.5339 38.3846 65.5667C36.3055 65.8234 35.4671 65.2101 34.2989 62.6246C34.725 61.6401 35.1744 60.5995 35.6239 59.5588L35.6099 59.5464Z" fill="#97B6C2"/>
<path d="M55.2099 54.457C54.6134 54.5768 54.0215 54.783 53.4224 54.7989C52.2878 54.8296 51.1472 54.7351 50.0515 55.1412C49.972 55.1705 49.8731 55.1925 49.7922 55.1759C47.0544 54.6289 44.2342 55.4357 41.5123 54.6651C41.2822 54.5996 41.0647 54.4832 40.8506 54.3951C40.886 53.3719 41.5028 52.9281 42.3356 52.7734C43.1825 52.6152 44.0496 52.5611 44.8942 52.4645C45.3225 53.0443 44.9133 53.3084 44.5175 53.4477C44.0458 53.6127 43.5276 53.6486 42.9118 53.7613C43.0764 54.078 43.1683 54.447 43.2915 54.4569C43.8759 54.5095 44.5512 54.6387 45.0341 54.4087C45.6266 54.125 46.0618 53.5087 46.5662 53.0357C47.0161 53.1559 47.4309 53.267 47.7437 53.349C48.3036 52.9804 48.7908 52.6571 49.4463 52.2242C49.7123 52.8342 49.9091 53.2851 50.1043 53.736C49.9117 53.7995 49.7209 53.8648 49.5283 53.93C49.5806 53.9921 49.6329 54.056 49.6852 54.1181C49.808 53.9712 49.9308 53.8261 50.0537 53.6792C51.0165 53.758 51.0629 52.8777 51.4195 52.185C52.6167 52.4597 53.8599 51.9069 54.9537 52.7267C54.1186 52.9431 53.2818 53.149 52.4571 53.3936C52.3493 53.4262 52.2998 53.6547 52.1799 53.8686C53.4937 54.3116 54.3484 53.8576 54.8838 52.6574C54.9771 53.28 55.0703 53.9009 55.1635 54.5235C55.167 54.5218 55.2099 54.457 55.2099 54.457Z" fill="#97B6C2"/>
<path d="M88.2839 59.3334C87.5595 58.5749 86.659 58.0121 86.278 56.855C87.2014 56.4157 88.0676 56.2664 89.054 56.4635C90.394 56.7324 91.6889 56.9058 93.1212 56.4726C94.8468 55.9504 95.8705 56.9335 96.4643 59.1264C93.9352 59.4919 93.9352 59.4919 91.6794 57.9996C91.562 58.3297 91.4518 58.6388 91.2803 59.1235C90.8765 59.164 90.3793 59.2248 89.8805 59.2592C89.364 59.297 88.8442 59.3101 88.2839 59.3334ZM89.9232 57.9948C89.7361 58.0337 89.5491 58.0708 89.8773 58.0032C89.5788 58.0975 89.7766 58.0358 89.9762 57.9724C90.0108 58.0467 90.0454 58.121 90.08 58.1952C90.0348 58.1244 89.9896 58.0518 89.9232 57.9948ZM93.5525 57.3219C93.4269 57.3825 93.3013 57.4448 93.1757 57.5053C93.2209 57.5656 93.2623 57.6717 93.3116 57.6739C93.4454 57.6838 93.5831 57.6498 93.7171 57.6334C93.6634 57.529 93.608 57.4246 93.5525 57.3219Z" fill="#97B6C2"/>
<path d="M102.934 51.0973C102.634 50.6931 102.335 50.2871 102.044 49.8953C102.542 49.1791 103.209 49.4651 103.759 49.4223C104.644 49.3525 105.493 49.2771 106.139 48.5711C106.141 48.5711 106.132 48.5728 106.132 48.5728C105.807 49.8559 106.601 50.6661 107.396 51.4481C107.517 51.5671 107.85 51.4679 108.31 51.4719C107.9 50.8394 107.601 50.3788 107.337 49.9732C107.414 49.7871 107.435 49.6481 107.484 49.6362C108.391 49.4169 109.313 49.0233 110.211 49.0699C110.792 49.0997 111.394 49.7197 111.885 50.1837C112.304 50.5802 112.579 51.1304 112.919 51.6125L112.84 51.529C112.591 51.9848 112.159 52.0216 111.714 52.0195C109.431 52.0013 107.148 51.9761 104.867 51.9668C104.048 51.9631 103.268 51.9158 102.873 51.0246C103.102 50.9543 103.341 50.9071 103.556 50.8086C103.68 50.7533 103.842 50.6191 103.846 50.5134C103.85 50.4148 103.679 50.2372 103.568 50.2239C103.447 50.2087 103.252 50.3074 103.188 50.4161C103.066 50.6229 103.015 50.869 102.934 51.0973ZM105.37 51.2754C105.446 51.276 105.518 51.2767 105.59 51.2773C105.567 51.1538 105.555 51.0268 105.512 50.912C105.502 50.8872 105.382 50.9038 105.312 50.8997C105.332 51.0284 105.352 51.1554 105.37 51.2754ZM109.875 50.9483C109.81 50.9812 109.718 50.9998 109.689 51.0541C109.664 51.1015 109.708 51.1882 109.721 51.257C109.822 51.1997 109.923 51.1425 110.024 51.0835C109.975 51.039 109.924 50.9928 109.875 50.9483Z" fill="#97B6C2"/>
<path d="M137.737 49.1871C138.007 49.3656 138.382 49.7617 138.529 49.6907C139.923 49.0124 141.269 49.4099 142.782 49.7895C143.136 50.3404 143.552 50.9888 144.04 51.7487C143.153 52.2765 142.274 51.8848 141.463 52.0063C140.468 52.1562 139.908 51.311 139.145 50.9556C138.352 51.9281 137.221 52.0168 136.15 52.1889C135.859 52.2357 135.447 52.0366 135.211 51.8179C134.501 51.1599 133.994 50.3663 133.824 49.2146C135.239 49.2269 136.525 49.2382 137.812 49.2494L137.737 49.1871ZM136.016 50.8525C136.518 51.0137 136.742 51.1354 136.971 51.1445C137.184 51.1534 137.404 51.0426 137.647 50.976C137.019 50.1373 137.019 50.1373 136.016 50.8525Z" fill="#97B6C2"/>
<path d="M30.8855 46.4541C30.4394 46.4995 29.9916 46.5431 29.5456 46.5886L29.5995 46.6666C29.0322 46.4696 28.4632 46.2744 27.896 46.0774L27.9658 46.1485C28.4619 46.0207 28.9572 45.7837 29.4522 45.781C34.7616 45.7586 40.0724 45.768 45.3815 45.7826C45.7126 45.7837 46.0446 45.8906 46.4228 45.9573C46.465 46.3698 46.4991 46.7013 46.5444 47.1579C45.4291 47.3842 44.3019 46.5659 43.2811 47.2668L43.2982 47.3286C43.2122 46.086 43.0877 46.0145 41.8492 46.6466C41.9617 46.8696 42.0743 47.0943 42.1868 47.3172L42.205 47.2557C40.6967 47.2989 39.2389 46.6203 37.3504 47.2433C37.8513 46.7615 38.013 46.6061 38.2013 46.4246C36.9044 45.6628 35.7592 46.7027 34.5362 46.7519C33.1871 47.9415 31.9942 47.3797 30.8452 46.4326C31.5322 46.428 32.2483 47.1283 33.1329 46.0862C32.1944 46.24 31.5399 46.347 30.8855 46.4541Z" fill="#97B6C2"/>
<path d="M79.4521 53.6787C80.0552 54.8183 81.1457 54.6059 82.1389 54.6357C82.5457 54.6481 82.6453 54.5362 83.3994 53.507C82.9001 53.1997 82.4042 52.8959 81.9101 52.5921L81.9539 52.6172C83.218 52.297 84.4735 52.1371 85.8546 52.7358C85.4014 53.5967 85.0038 54.3489 84.5488 55.2151C83.2257 55.2494 81.9362 55.6627 80.5083 55.1746C79.6706 54.8872 78.6288 55.1776 77.6806 55.2292C77.0127 55.2656 76.3462 55.3391 75.59 55.4029C76.7666 52.1844 77.0243 52.1197 80.2662 52.4333C80.4264 52.4488 80.577 52.5523 80.7332 52.6171C80.3882 53.4032 80.3882 53.4032 79.4027 53.6994C79.0943 53.7055 78.7967 53.7029 78.5007 53.7003C78.5073 53.7515 78.5157 53.8026 78.5223 53.8537C78.8329 53.7948 79.1416 53.7376 79.4521 53.6787Z" fill="#97B6C2"/>
<path d="M49.5153 57.3904C49.9376 58.0423 50.4042 58.6699 50.7505 59.3582C50.8544 59.5652 50.6204 59.9436 50.542 60.2424C50.5438 60.2424 50.5701 60.2497 50.5701 60.2497C50.1926 60.7132 49.8169 61.1767 49.4394 61.642L49.4841 61.5701C47.6998 62.5586 45.9069 62.7367 44.0932 61.6429C44.0897 61.6481 44.0346 61.7022 44.031 61.7075C44.8157 61.2106 45.6057 60.7101 46.4736 60.1593C48.195 60.5178 48.195 60.5178 49.846 59.8682C49.7267 58.9952 49.0609 58.7974 48.3519 58.6872C47.0414 58.4856 46.1758 57.754 45.5298 56.4854C46.7383 55.8724 47.8407 56.5056 48.9123 56.4356C49.1097 56.4233 49.3522 57.1036 49.5727 57.4631C49.1644 57.4243 48.7562 57.3696 48.3493 57.3679C48.293 57.3674 48.2344 57.617 48.1733 57.7556C48.7175 57.977 49.3177 58.4279 49.5153 57.3904Z" fill="#97B6C2"/>
<path d="M95.4154 49.6998C97.4185 50.672 98.0061 50.7617 99.6291 50.2826C99.2908 50.0912 99.0279 49.9445 98.7229 49.7727C99.2133 49.2785 99.7896 49.2447 100.371 49.4612C100.971 49.6849 101.146 50.0299 101.718 51.6942C101.205 51.725 100.726 51.7859 100.248 51.7747C99.8205 51.7657 99.3951 51.6581 98.9674 51.6262C97.7915 51.5366 96.6705 51.2098 95.4262 51.6833C94.2615 52.1259 93.0206 51.6218 91.9142 51.0291L91.9647 51.1C91.9117 50.5112 91.8587 49.9206 91.7896 49.1661C93.118 48.9311 94.4177 48.3594 95.4763 49.7796C94.873 49.8835 94.2679 49.9839 93.6629 50.0826C94.0989 50.377 94.5259 50.5006 94.8966 50.4051C95.1155 50.3489 95.2459 49.9467 95.4154 49.6998Z" fill="#97B6C2"/>
<path d="M18.8204 46.3311C19.9051 45.3577 20.9274 45.4916 22.2773 46.0301C23.3393 46.4533 24.6426 46.8875 25.9539 46.3951C26.5689 46.1645 27.2906 46.2218 27.9641 46.1484L27.8943 46.0774C28.4616 46.2743 29.0306 46.4695 29.5978 46.6665L29.5439 46.5885C29.4765 46.8416 29.4074 47.0929 29.3401 47.3407C28.6429 47.2923 27.7756 46.9606 27.2833 47.254C26.1342 47.938 24.8772 47.455 23.7373 47.8748C23.474 47.9712 23.1006 47.7741 22.7788 47.7079C22.035 47.5535 21.293 47.3973 20.2925 47.1877C20.4856 48.0737 20.6719 48.7218 20.7542 49.3848C20.8035 49.7922 20.6924 50.2175 20.6535 50.6364L20.6819 50.6137C20.5232 50.2266 20.4551 49.7574 20.1916 49.4662C19.3506 48.5411 19.0646 47.4095 18.8229 46.2466C18.9638 46.239 19.1013 46.2296 19.2405 46.222C19.1011 46.2578 18.9598 46.2953 18.8204 46.3311Z" fill="#97B6C2"/>
<path d="M55.1698 54.5216C55.7013 53.9731 56.2345 53.4229 56.8407 52.7976C57.9574 52.8073 59.1428 52.8177 60.4585 52.8291C60.5599 53.7302 59.244 54.1361 59.6463 55.0733L59.6392 55.075C59.7738 55.395 59.9913 55.7051 60.0289 56.0366C60.1256 56.8707 60.1411 57.7128 60.1945 58.6574C58.768 59.0307 57.438 58.8324 56.4411 57.4022C56.0549 56.8475 55.4626 56.6943 54.8004 56.8841L54.8825 56.9658C55.5117 56.3248 56.209 56.1424 56.9989 56.6707C57.3456 56.9028 57.6817 57.1488 58.0651 57.4199C58.7762 56.6722 59.2874 56.0337 58.5594 55.0796C58.2529 54.6771 58.0687 54.1805 57.7481 53.5717C56.9654 54.2466 56.4168 55.5524 55.2215 54.4498C55.2127 54.4568 55.1698 54.5216 55.1698 54.5216Z" fill="#97B6C2"/>
<path d="M124.394 52.0154C123.872 51.2658 123.075 50.7497 123.216 49.6289C124.324 49.0273 125.539 49.6033 126.696 49.4708C126.943 49.443 127.34 49.7829 127.489 50.0537C127.813 50.6378 128.021 51.2861 128.322 52.0215C126.874 52.2978 125.617 52.204 124.394 52.0154Z" fill="#97B6C2"/>
<path d="M149.274 58.2742C149.294 58.6073 149.316 58.9404 149.344 59.3986C148.707 59.4565 148.152 59.5168 147.595 59.556C145.415 59.7131 145.236 59.597 144.092 57.2548C145.155 56.3798 146.397 56.9209 147.591 56.7781C148.171 57.2992 148.746 57.8169 149.321 58.3345C149.32 58.3345 149.274 58.2742 149.274 58.2742ZM146.751 58.3702C146.692 58.4225 146.632 58.4731 146.574 58.5254C146.702 58.5917 146.826 58.672 146.963 58.7155C147 58.7264 147.073 58.6178 147.128 58.5655C147.002 58.4992 146.877 58.4347 146.751 58.3702Z" fill="#97B6C2"/>
<path d="M91.9123 51.0295C91.698 51.1668 91.4897 51.4134 91.2712 51.422C90.4025 51.4567 89.5308 51.4245 88.6609 51.401C88.3139 51.391 87.9691 51.3386 87.4939 51.294C87.2708 51.019 86.9883 50.7012 86.7447 50.3573C86.5446 50.0755 86.394 49.7589 86.1962 49.419C86.3811 49.2268 86.537 48.9164 86.7257 48.8951C87.4963 48.805 88.2787 48.7642 89.0554 48.7781C89.892 48.7924 90.5125 49.1484 90.9052 49.9691C91.1162 50.4096 91.5962 50.722 91.9575 51.0969C91.9645 51.1005 91.9123 51.0295 91.9123 51.0295Z" fill="#97B6C2"/>
<path d="M103.592 59.5534C103.417 59.344 103.263 59.2299 103.207 59.0779C102.945 58.3798 102.71 57.6714 102.402 56.7862C103.318 56.7942 104.093 56.7904 104.866 56.8095C105.976 56.8386 106.129 57.0407 106.136 58.4341C106.548 58.908 107.612 58.6337 107.546 59.8274C106.199 59.7347 104.863 59.642 103.592 59.5534Z" fill="#97B6C2"/>
<path d="M138.293 55.5243C137.872 55.5294 137.395 55.4107 137.038 55.5662C135.953 56.0376 134.84 55.8993 133.564 55.9938C133.415 54.9691 133.832 54.2135 134.353 53.5839C134.88 52.9456 135.707 52.8436 136.514 52.9176C137.202 52.9799 137.884 53.0863 138.671 53.1865C138.695 53.6465 138.716 54.0606 138.737 54.4747L138.812 54.4049C138.611 54.7978 138.408 55.1888 138.208 55.5816C138.206 55.5834 138.293 55.5243 138.293 55.5243ZM135.602 54.8596C135.567 54.7501 135.533 54.6423 135.499 54.5328C135.243 54.6028 134.978 54.6551 134.739 54.7622C134.697 54.7812 134.76 55.0302 134.773 55.1729C135.049 55.0697 135.326 54.9646 135.602 54.8596ZM136.813 54.4967C136.904 54.6226 136.973 54.7394 137.066 54.8301C137.083 54.8461 137.228 54.7804 137.257 54.7243C137.284 54.6682 137.248 54.5164 137.22 54.5108C137.093 54.4851 136.96 54.498 136.813 54.4967Z" fill="#97B6C2"/>
<path d="M112.923 51.6143C112.882 51.0327 112.84 50.451 112.796 49.8235C113.724 49.4036 113.724 49.4036 116.592 49.5942C116.871 50.1656 117.167 50.7741 117.452 51.3738C117.267 51.3545 117.093 51.3442 116.917 51.3339C117.086 51.3424 117.253 51.3509 117.422 51.3594C117.548 51.4785 117.676 51.5977 117.812 51.7257C116.019 52.2596 115.65 52.2458 112.846 51.5309C112.845 51.5308 112.923 51.6143 112.923 51.6143Z" fill="#97B6C2"/>
<path d="M149.346 50.8571C149.418 51.3122 149.388 51.784 148.851 51.8674C148.172 51.9742 147.473 51.9734 146.782 51.9815C145 51.9994 144.69 51.7113 144.09 49.4214C144.676 49.3543 145.239 49.2412 145.802 49.2391C146.403 49.2355 147.003 49.3359 147.592 49.3903C148.21 49.9171 148.799 50.4208 149.39 50.9262C149.392 50.9245 149.346 50.8571 149.346 50.8571Z" fill="#97B6C2"/>
<path d="M101.834 55.1101C102.324 54.2371 102.736 53.5026 103.187 52.6998C104.407 52.9588 105.487 53.1884 106.568 53.4198C106.204 55.3296 105.83 55.6839 104.172 55.6501C103.651 55.6403 103.13 55.5899 102.614 55.5255C102.46 55.5066 102.318 55.375 101.834 55.1101Z" fill="#97B6C2"/>
<path d="M122.814 53.282C122.299 54.2146 121.889 54.9614 121.433 55.7889C120.251 55.7785 119.053 55.7681 117.732 55.7566C117.892 55.3739 117.923 55.0395 118.091 54.9424C118.909 54.4721 118.463 53.1841 119.478 52.8671C120.121 52.6684 120.468 52.6978 122.814 53.282ZM119.808 54.6491C119.938 54.6502 120.07 54.6531 120.201 54.6437C120.206 54.6437 120.204 54.5239 120.206 54.4605C120.074 54.4576 119.944 54.4565 119.811 54.4536C119.809 54.5205 119.809 54.5839 119.808 54.6491Z" fill="#97B6C2"/>
<path d="M3.12135 52.9671C4.27674 52.9842 4.0373 54.3842 4.92354 54.7654C6.03761 54.4722 7.19931 54.167 8.42284 53.8447C8.52789 54.9272 9.41033 54.9384 10.0611 55.2559C9.52118 55.7603 8.98661 56.2594 8.33307 56.8685C7.55874 56.7842 7.6612 55.7423 7.16757 55.1831C5.77654 55.1199 4.33564 56.3298 3.11469 55.1442C3.15376 54.3008 3.18827 53.5754 3.22279 52.8499C3.22276 52.8534 3.12135 52.9671 3.12135 52.9671Z" fill="#97B6C2"/>
<path d="M134.02 58.0852C133.933 58.5107 133.845 58.9344 133.744 59.4321C132.912 59.4794 132.06 59.5583 131.208 59.572C129.62 59.5951 129.228 59.1778 128.872 57.1718C130.727 56.8974 132.491 57.0766 134.084 58.165L134.02 58.0852ZM130.713 58.3329C130.751 58.2117 130.778 58.1291 130.805 58.0448C130.744 58.0636 130.684 58.0825 130.622 58.1013C130.646 58.1649 130.67 58.225 130.713 58.3329Z" fill="#97B6C2"/>
<path d="M134.086 58.1647C133.942 57.7107 133.923 57.2402 134.484 57.1289C135.523 56.923 136.577 56.8565 137.794 57.3727C138.067 57.8965 138.419 58.5689 138.738 59.1776C138.59 59.3719 138.547 59.486 138.492 59.4908C137.633 59.5837 136.773 59.7206 135.911 59.7255C135.224 59.73 134.852 59.2159 134.566 58.6251C134.461 58.4075 134.206 58.2626 134.021 58.0849C134.023 58.0849 134.086 58.1647 134.086 58.1647Z" fill="#97B6C2"/>
<path d="M142.658 57.0122C143.087 57.9037 143.416 58.59 143.747 59.2764C140.991 60.1208 140.402 59.8532 139.253 57.1005C140.378 56.9024 141.469 57.0705 142.658 57.0122Z" fill="#97B6C2"/>
<path d="M119.119 51.58C118.67 50.9543 118.221 50.3286 117.746 49.6674C120.695 48.6556 121.344 48.9378 122.947 51.809C120.751 52.246 120.736 52.2441 119.054 51.539C119.783 51.4185 120.595 51.4344 120.879 50.3518C120.505 50.2499 120.199 50.1345 119.886 50.0947C119.747 50.0759 119.591 50.2067 119.441 50.2705C119.458 50.5384 119.262 51.3364 119.119 51.58Z" fill="#97B6C2"/>
<path d="M126.065 54.5506C126.038 53.9902 126.018 53.5954 125.996 53.1566C126.706 52.7242 127.371 52.6578 128.133 53.2827C127.675 54.1084 127.265 54.8499 126.75 55.7808C125.596 55.7707 124.319 55.7596 122.861 55.7468C122.956 55.4694 122.972 55.1066 123.162 54.9392C123.465 54.6706 123.873 54.4064 124.257 54.371C124.825 54.3213 125.41 54.4761 126.065 54.5506Z" fill="#97B6C2"/>
<path d="M59.6431 55.0733C60.2497 55.2019 60.6072 54.8122 60.9207 54.4116C61.4427 53.745 61.9226 53.0464 62.4485 52.3252C63.1202 52.2641 63.7933 52.2365 64.4548 52.1313C64.8376 52.0713 64.9865 51.7643 64.8878 51.3689C64.8737 51.3652 64.842 51.3702 64.8332 51.3684C65.1929 51.7238 65.5597 52.0811 66.096 52.6036C64.9789 52.8317 64.0366 53.0225 63.0537 53.2236C63.3108 54.0379 63.7837 53.7496 64.1434 53.7052C64.5684 53.6525 64.9926 53.4836 65.2345 54.0212C63.8267 55.0693 62.4505 55.3286 59.6396 55.0733C59.6343 55.0733 59.6431 55.0733 59.6431 55.0733Z" fill="#97B6C2"/>
<path d="M101.113 58.1807C101.431 58.5323 101.746 58.8838 102.186 59.3721C100.924 59.4685 99.914 59.5478 98.8564 59.6284C97.9716 59.0781 97.3548 58.3065 97.0655 57.3475C97.5691 56.5574 98.246 56.9103 98.7946 56.8235C99.299 56.7451 99.8286 56.8149 100.427 56.8202C100.675 57.305 100.905 57.7544 101.127 58.1967C100.398 57.979 99.7907 57.1281 98.6127 57.8824C99.192 58.1146 99.5334 58.3431 99.8925 58.3727C100.292 58.4043 100.706 58.2529 101.113 58.1807Z" fill="#97B6C2"/>
<path d="M131.282 51.0646C129.818 51.7599 129.021 50.9991 128.366 49.8061C129.688 49.0531 129.688 49.0531 132.442 49.8152C132.808 50.4297 133.206 51.099 133.61 51.7772C132.024 52.2707 132.024 52.2707 131.237 51.0114C131.492 51.077 131.74 51.1584 131.991 51.1747C132.041 51.1769 132.113 50.9221 132.155 50.7816C132.159 50.7658 131.996 50.6586 131.952 50.6794C131.72 50.7936 131.504 50.9344 131.282 51.0646Z" fill="#97B6C2"/>
<path d="M110.365 53.7175C108.904 53.6907 108.396 55.3244 107.232 55.9502C107.379 53.6069 108.866 52.3763 110.878 52.8871C111.457 53.033 111.861 53.7359 111.695 54.3404C111.459 55.1979 110.951 55.6973 110.021 55.6081C109.214 54.7115 111.032 54.6569 110.365 53.7175Z" fill="#97B6C2"/>
<path d="M131.95 53.369C132.968 54.2129 132.979 54.22 132.469 54.9501C132.272 55.2302 132.01 55.4657 131.8 55.6982C130.476 55.7712 129.209 55.8412 127.879 55.9159C128.965 54.1656 128.965 54.1656 130.321 53.3548L130.304 53.2965C130.321 53.3777 130.345 53.4589 130.355 53.5418C130.428 54.0832 130.199 54.8616 131.053 54.8902C131.632 54.9093 131.777 54.2941 131.897 53.8019C131.938 53.6419 131.944 53.4729 131.967 53.3075L131.95 53.369Z" fill="#97B6C2"/>
<path d="M44.3211 49.3806C44.9061 49.768 45.5087 50.1467 45.1905 51.0863C44.5131 50.9976 43.8348 50.805 43.1687 50.8414C41.9315 50.9099 41.2731 50.2594 40.6575 49.139C41.0945 48.9227 41.4316 48.6438 41.8002 48.5941C42.7772 48.4653 43.7005 48.6354 44.3857 49.4517C43.8631 49.5863 43.1586 49.1679 42.7877 49.8887C43.3158 50.5274 43.7257 50.3865 44.0915 49.8525C44.1914 49.7107 44.2475 49.5385 44.3211 49.3806Z" fill="#97B6C2"/>
<path d="M117.75 52.8982C117.097 54.0445 116.639 54.8473 116.12 55.7605C114.801 55.749 113.437 55.7371 112.037 55.7249C111.759 55.0566 112.337 54.8908 112.786 54.701C113.01 54.606 113.342 54.5649 113.549 54.6618C115.066 55.3849 116.006 54.8841 116.597 53.3796C116.671 53.1847 117.136 53.1412 117.75 52.8982Z" fill="#97B6C2"/>
<path d="M27.2245 48.1727C28.2854 49.135 30.1388 48.8993 30.5033 50.9246C29.7167 51.0446 29.0605 51.1446 28.4731 51.2346C27.9375 50.8476 28.5772 50.6119 28.4868 50.472C28.4096 49.4285 26.4832 49.764 27.2245 48.1727Z" fill="#97B6C2"/>
<path d="M39.7119 49.2332C38.8192 49.5936 38.524 49.7126 38.1952 49.8453C38.5752 50.9056 39.9113 49.9977 40.3368 50.8998C37.6447 51.1581 37.166 50.9162 36.1592 48.8041C36.3008 48.7261 36.4572 48.5601 36.5803 48.5824C37.4228 48.7324 38.2596 48.9246 39.7119 49.2332Z" fill="#97B6C2"/>
<path d="M36.0079 53.8542C36.2489 53.4969 36.4898 53.1414 36.8021 52.6791C37.3579 52.7668 37.9382 52.8828 38.5243 52.9425C38.9572 52.9868 39.5021 52.3134 39.8048 53.158C37.9179 54.6107 37.6091 54.6678 36.0079 53.8542Z" fill="#97B6C2"/>
<path d="M64.0978 56.1251C63.2735 56.7169 62.9331 56.9605 62.5964 57.2006C62.7433 57.718 62.8818 58.2037 63.0561 58.8164C62.706 58.7764 62.369 58.8369 62.2626 58.7091C61.7241 58.0526 61.2441 57.3456 60.6522 56.5319C61.7259 56.0305 62.6283 55.9714 64.0978 56.1251Z" fill="#97B6C2"/>
<path d="M22.28 53.2208C22.3377 53.4697 22.3954 53.7203 22.4922 54.1422C21.487 54.269 20.516 54.9176 19.6613 53.5485C20.1425 53.1158 20.5739 52.7268 20.9592 52.3814C21.7521 52.5556 21.6035 53.2325 21.8553 53.6434C21.7059 53.6086 21.5635 53.5792 21.4211 53.548C21.5546 53.5809 21.6865 53.612 21.8201 53.6448C21.9799 53.5 22.1414 53.3552 22.3012 53.2104L22.28 53.2208Z" fill="#97B6C2"/>
<path d="M71.2211 53.2742C70.6159 53.593 70.0089 53.9136 69.3382 54.2653C68.9572 53.7177 68.6127 53.2303 68.2824 52.7342C68.2511 52.6881 68.3172 52.5777 68.3483 52.4494C69.1876 52.351 70.0428 52.251 70.8398 52.1576C71.4076 52.4919 71.2894 52.9154 71.1554 53.3423C71.1571 53.3441 71.2211 53.2742 71.2211 53.2742Z" fill="#97B6C2"/>
<path d="M53.7377 56.8647C53.5809 57.0677 53.3697 57.2508 53.2796 57.4807C53.0778 57.9986 53.3071 58.7722 52.4204 58.8525C51.6464 58.9232 51.466 58.203 51.0875 57.7804C50.8293 57.4911 50.7096 57.0761 50.3477 56.3595C51.2475 56.6016 51.7703 56.844 52.2987 56.8539C52.7583 56.8632 53.2354 56.2896 53.6684 56.9363C53.6701 56.9363 53.7377 56.8647 53.7377 56.8647Z" fill="#97B6C2"/>
<path d="M32.8323 50.6337C31.6253 50.4682 30.6871 49.9914 30.496 48.4696C31.3846 48.1779 32.2986 48.4008 33.2217 48.3912C33.1581 49.0195 32.5245 48.7603 32.2997 49.0878C32.2823 49.6636 33.2331 49.9203 32.8235 50.6319L32.8323 50.6337Z" fill="#97B6C2"/>
<path d="M3.12256 47.9802C1.85437 47.9692 0.58792 47.9581 -0.780665 47.9462C0.531157 46.9941 0.531185 46.9941 3.12256 47.9802Z" fill="#97B6C2"/>
<path d="M44.7866 57.5866C44.9639 57.8629 45.0931 57.9944 45.1358 58.148C45.1733 58.291 45.119 58.4579 45.1034 58.6339C44.016 58.4976 42.9266 58.3824 41.8484 58.1986C41.6989 58.1726 41.6088 57.8037 41.4908 57.593C41.6391 57.5556 41.8551 57.4359 41.9268 57.4947C42.8625 58.255 43.8831 57.7742 44.7866 57.5866Z" fill="#97B6C2"/>
<path d="M31.6298 53.0346C31.7915 52.6626 31.7835 52.1728 32.3216 52.0701C33.1121 51.9202 33.8516 51.9584 34.4252 52.6345C34.4862 53.5193 33.7903 53.7352 33.1923 54.0382L33.2128 54.1071C33.0068 52.6838 32.8737 52.5928 31.5563 52.9759L31.6298 53.0346Z" fill="#97B6C2"/>
<path d="M17.1141 55.1969C16.6098 56.0574 15.885 56.1497 15.1007 56.0037C14.9072 55.9668 14.7545 55.7048 14.5833 55.5465C14.7415 55.384 14.8973 55.0859 15.0576 55.0821C15.7042 55.0683 16.3518 55.1462 17.1141 55.1969Z" fill="#97B6C2"/>
<path d="M26.8411 56.6531C27.2297 56.5332 27.6581 56.4788 27.9999 56.2792C28.7701 55.8262 28.7527 55.7961 30.0401 55.8232C29.3729 56.182 28.7161 56.562 28.035 56.8925C27.5998 57.1054 27.2119 56.9523 26.9086 56.585L26.8411 56.6531Z" fill="#97B6C2"/>
<path d="M28.2359 61.1497C28.0002 60.5135 27.775 59.8668 27.0034 59.6786C28.2893 59.6793 28.2893 59.6793 28.22 61.1618L28.2359 61.1497Z" fill="#97B6C2"/>
<path d="M19.5247 55.7838C20.5532 55.6078 20.7602 56.1116 20.7735 56.804C20.7747 56.8727 20.6999 56.9707 20.6344 57.0071C20.5689 57.0436 20.4244 57.0546 20.3947 57.0156C20.1127 56.6362 19.8466 56.2446 19.5247 55.7838Z" fill="#97B6C2"/>
<path d="M37.5798 58.6277C36.8731 58.0543 35.9355 57.7079 35.6837 56.6911C36.974 57.3999 36.974 57.3999 37.5444 58.6485L37.5798 58.6277Z" fill="#97B6C2"/>
<path d="M18.9613 51.7381C18.8454 52.0982 18.8419 52.2937 18.7444 52.3738C18.4232 52.637 18.7132 53.3177 18.0754 53.3368C17.9961 53.3397 17.8679 53.2998 17.8437 53.245C17.616 52.6987 17.8225 52.2443 18.2133 51.8707C18.3145 51.7765 18.5362 51.8083 18.9613 51.7381Z" fill="#97B6C2"/>
<path d="M31.5766 54.0182C31.1689 54.3105 30.7612 54.6029 30.0645 55.1006C30.3391 53.9158 30.6027 53.1853 31.6309 53.034L31.5575 52.9734C31.556 53.3433 31.5528 53.715 31.5513 54.0849L31.5766 54.0182Z" fill="#97B6C2"/>
<path d="M26.9103 56.5833C26.2533 56.5811 25.5203 56.809 25.0763 56.0054C26.1571 55.6907 26.1571 55.6907 26.841 56.6532C26.8428 56.6532 26.9103 56.5833 26.9103 56.5833Z" fill="#97B6C2"/>
<path d="M35.6209 59.5567C34.9404 59.815 34.26 60.0733 33.3745 60.4073C34.0321 59.3438 34.9402 59.8449 35.6086 59.546C35.6104 59.546 35.6209 59.5567 35.6209 59.5567Z" fill="#97B6C2"/>
<path d="M12.206 52.3183C11.9375 52.1961 11.6637 52.0828 11.4078 51.9379C11.3885 51.9271 11.4998 51.6903 11.5503 51.5586C11.8364 51.6738 12.1242 51.7891 12.4104 51.9061C12.3422 52.0411 12.2741 52.1797 12.206 52.3183Z" fill="#97B6C2"/>
<path d="M32.2643 57.995C32.1931 57.8764 32.1202 57.756 32.049 57.6373C32.1233 57.6028 32.2508 57.5264 32.2647 57.5423C32.3536 57.6488 32.4177 57.7762 32.4906 57.8984C32.4164 57.9294 32.3403 57.9622 32.2643 57.995Z" fill="#97B6C2"/>
<path d="M54.7972 56.8849C54.8632 57.2008 54.9291 57.5167 55.0001 57.8573C54.2419 57.9458 53.9253 57.4868 53.7352 56.8669C53.7334 56.8669 53.6676 56.9385 53.6658 56.9385C54.0691 56.9473 54.4725 56.9561 54.8775 56.9667C54.8793 56.9667 54.7972 56.8849 54.7972 56.8849Z" fill="#97B6C2"/>
<path d="M32.8206 50.633C33.4801 50.5525 34.1414 50.4737 34.8009 50.3932C34.8089 50.4795 34.8152 50.5677 34.8232 50.6541C34.1627 50.6483 33.5023 50.6425 32.8365 50.635C32.8312 50.6331 32.8206 50.633 32.8206 50.633Z" fill="#97B6C2"/>
<path d="M9.23448 48.0357C9.40953 47.7589 9.49075 47.5359 9.55942 47.54C9.78654 47.5526 10.0149 47.6303 10.2254 47.7255C10.257 47.7399 10.1869 48.1004 10.1587 48.1001C9.87859 48.1047 9.59883 48.0688 9.23448 48.0357Z" fill="#97B6C2"/>
<path d="M29.3612 54.3251C29.142 53.8017 28.9229 53.2784 28.7055 52.7551L28.6488 52.7916C28.9489 52.715 29.2508 52.6366 29.6039 52.5463C29.5064 53.2307 29.4276 53.7778 29.3488 54.3267L29.3612 54.3251Z" fill="#97B6C2"/>
<path d="M7.91344 48.2686C7.69393 48.1909 7.44605 48.1324 7.23573 48.0108C7.15862 47.9661 7.15501 47.7776 7.14203 47.6506C7.14042 47.633 7.29603 47.5639 7.35927 47.5838C7.58764 47.6563 7.8141 47.7463 8.02806 47.8539C8.07542 47.8772 8.1042 48.0078 8.08776 48.0746C8.07309 48.1414 7.98987 48.19 7.91344 48.2686Z" fill="#97B6C2"/>
<path d="M113.954 53.3848C114.034 53.2516 114.089 53.0601 114.206 53.003C114.315 52.9511 114.492 53.0443 114.64 53.0737C114.569 53.2052 114.525 53.4056 114.417 53.4487C114.293 53.5005 114.112 53.4126 113.954 53.3848Z" fill="#97B6C2"/>
<path d="M22.572 57.9775C22.5229 57.9524 22.4738 57.9291 22.4247 57.904C22.5023 57.8906 22.5818 57.8648 22.6575 57.8708C22.7068 57.873 22.7539 57.9209 22.803 57.9478C22.7254 57.9577 22.6478 57.9676 22.572 57.9775Z" fill="#97B6C2"/>
<path d="M26.339 58.1716C26.2724 58.141 26.2039 58.1087 26.1373 58.0782C26.18 58.0204 26.2427 57.9083 26.2602 57.9155C26.3673 57.9569 26.4636 58.0247 26.5652 58.0855C26.4892 58.113 26.415 58.1423 26.339 58.1716Z" fill="#97B6C2"/>
<path d="M29.351 54.3271C28.8895 54.323 28.4263 54.319 27.9648 54.315C27.9689 54.2481 27.9748 54.1812 27.9789 54.1143C28.4363 54.1835 28.8954 54.2544 29.3581 54.3254C29.3634 54.3254 29.351 54.3271 29.351 54.3271Z" fill="#97B6C2"/>
<path d="M17.8348 58.8884C17.9015 58.9119 17.97 58.9336 18.0367 58.9571C17.9464 59.018 17.8611 59.0983 17.7622 59.1309C17.7109 59.148 17.6305 59.0839 17.5638 59.0569C17.6541 59.0013 17.7444 58.9458 17.8348 58.8884Z" fill="#97B6C2"/>
<path d="M28.7084 52.755C28.1192 52.6494 27.53 52.5439 26.9409 52.4366L27.0038 52.4935C27.6819 51.897 28.0759 52.7706 28.6411 52.8002C28.6517 52.7915 28.7084 52.755 28.7084 52.755Z" fill="#97B6C2"/>
<path d="M13.0287 50.0573C12.9551 50.0197 12.8814 49.9838 12.806 49.9462C12.9334 49.8804 13.0539 49.7933 13.1881 49.7558C13.2482 49.7387 13.3355 49.8222 13.4109 49.8599C13.2835 49.9275 13.1561 49.9933 13.0287 50.0573Z" fill="#97B6C2"/>
<path d="M18.6676 57.7994C18.713 57.8421 18.7602 57.8848 18.8057 57.9274C18.7001 57.9124 18.5963 57.8974 18.4907 57.8824C18.5491 57.853 18.6093 57.8253 18.6676 57.7994Z" fill="#97B6C2"/>
<path d="M66.5213 56.8525C66.5154 56.7133 66.4991 56.574 66.5143 56.4403C66.5163 56.4192 66.6822 56.3819 66.7418 56.4123C66.8032 56.4446 66.8723 56.5984 66.8563 56.6141C66.7568 56.7066 66.6364 56.7743 66.5213 56.8525Z" fill="#97B6C2"/>
<path d="M33.1921 54.0382C32.6479 54.4262 32.108 54.5307 31.5734 54.0188L31.5482 54.0855C32.103 54.0921 32.656 54.0987 33.2108 54.1053L33.1921 54.0382Z" fill="#97B6C2"/>
<path d="M15.1428 53.9117L15.1694 54.0916L15.0064 53.9985L15.1428 53.9117Z" fill="#97B6C2"/>
<path d="M3.11883 52.9674L3.22024 52.8538C3.09711 52.8334 2.97397 52.8129 2.8526 52.7925C2.94018 52.8496 3.02951 52.9085 3.11883 52.9674Z" fill="#97B6C2"/>
<path d="M15.335 48.6535C15.2195 48.5662 15.1057 48.4806 14.992 48.3951C15.1088 48.3345 15.2222 48.2544 15.3458 48.2238C15.4005 48.2102 15.4809 48.2919 15.5492 48.3295C15.4778 48.4381 15.4064 48.5467 15.335 48.6535Z" fill="#97B6C2"/>
<path d="M97.2682 49.4704C97.151 49.3743 97.0338 49.2764 96.9167 49.1803C97.0387 49.1197 97.1557 49.0379 97.2846 49.0073C97.3428 48.9937 97.4249 49.079 97.4967 49.1201C97.42 49.2357 97.345 49.3531 97.2682 49.4704Z" fill="#97B6C2"/>
<path d="M31.6241 59.594C31.613 59.6556 31.6014 59.7682 31.5909 59.7681C31.4834 59.7654 31.3761 59.7468 31.2688 59.7318C31.3151 59.6741 31.3493 59.5898 31.4077 59.5674C31.4695 59.5451 31.552 59.5828 31.6241 59.594Z" fill="#97B6C2"/>
<path d="M20.6582 50.635C21.0065 50.4918 21.3342 50.079 21.8071 50.5957C21.3914 50.5921 21.0532 50.5891 20.7008 50.5984C20.6866 50.6123 20.6582 50.635 20.6582 50.635Z" fill="#97B6C2"/>
<path d="M70.3039 58.4252C70.5465 58.4872 70.7998 58.5246 71.0244 58.6234C71.0981 58.6558 71.1087 58.8532 71.1218 58.9766C71.1233 58.996 70.9819 59.0546 70.9062 59.0522C70.4694 59.0431 70.3663 58.7498 70.3536 58.3833L70.3039 58.4252Z" fill="#97B6C2"/>
<path d="M130.32 53.356C130.866 53.0014 131.409 53.0519 131.951 53.3702L131.967 53.3087C131.412 53.3056 130.858 53.3008 130.303 53.2977L130.32 53.356Z" fill="#97B6C2"/>
<path d="M7.94308 49.9329C7.94003 49.8783 7.92511 49.7707 7.93747 49.7673C8.00987 49.7468 8.08909 49.7528 8.16488 49.7481C8.16786 49.8098 8.17086 49.8715 8.17383 49.9349C8.09809 49.9343 8.02058 49.9336 7.94308 49.9329Z" fill="#97B6C2"/>
<path d="M81.9144 52.594C82.0137 52.7199 82.1537 52.8321 82.1964 52.9751C82.2221 53.0599 82.0977 53.1892 82.0404 53.2997C82.011 53.236 81.9587 53.1739 81.9575 53.1105C81.9553 52.9554 81.9778 52.8006 81.974 52.6332C81.9582 52.619 81.9144 52.594 81.9144 52.594Z" fill="#97B6C2"/>
<path d="M22.3021 53.2081C22.4339 53.248 22.5675 53.2861 22.6992 53.326C22.5621 53.2914 22.4251 53.255 22.2827 53.2202C22.2792 53.2202 22.3021 53.2081 22.3021 53.2081Z" fill="#97B6C2"/>
<path d="M26.9409 52.4384C26.8153 52.5077 26.6896 52.5788 26.6418 52.6048C26.7054 52.5843 26.8503 52.5362 27.0004 52.4917C27.0039 52.4935 26.9409 52.4384 26.9409 52.4384Z" fill="#97B6C2"/>
<path d="M16.2814 52.6824L16.0974 52.5752L16.3023 52.5135L16.2814 52.6824Z" fill="#97B6C2"/>
<path d="M37.5432 58.6493C37.6123 58.6058 37.6763 58.5395 37.7522 58.5225C37.8934 58.4903 38.0396 58.488 38.1842 58.4734C37.9918 58.5176 37.7976 58.5616 37.5928 58.6162C37.5804 58.6285 37.5432 58.6493 37.5432 58.6493Z" fill="#97B6C2"/>
<path d="M70.3575 58.3839C70.1583 58.4033 69.9591 58.4227 69.7598 58.4421C69.7937 58.4019 69.8348 58.3248 69.8594 58.3303C70.0036 58.3579 70.1459 58.405 70.2971 58.4345C70.306 58.4258 70.3575 58.3839 70.3575 58.3839Z" fill="#97B6C2"/>
<path d="M67.7395 58.4544C67.6858 58.3536 67.616 58.2825 67.627 58.2262C67.6363 58.1699 67.7266 58.1284 67.7816 58.0796C67.7683 58.194 67.7567 58.3066 67.7395 58.4544Z" fill="#97B6C2"/>
<path d="M15.1892 57.3901C15.1309 57.4178 15.0725 57.4472 15.0141 57.4749C14.9921 57.3761 14.97 57.2772 14.948 57.1802C15.0148 57.1931 15.0959 57.1867 15.1449 57.2242C15.1816 57.2509 15.1756 57.3319 15.1892 57.3901Z" fill="#97B6C2"/>
<path d="M1.01948 49.8598L0.865344 49.7616L1.03852 49.6979L1.01948 49.8598Z" fill="#97B6C2"/>
<path d="M13.0258 48.4138L13.0305 48.2818L13.1778 48.3553L13.0258 48.4138Z" fill="#97B6C2"/>
</g>
<defs>
<clipPath id="clip0_1643_10074">
<rect x="157.994" y="59.8143" width="157.994" height="12.0076" rx="6.00379" transform="rotate(180 157.994 59.8143)" fill="white"/>
</clipPath>
</defs>
</svg>
